<?xml version="1.0" encoding="UTF-8"?>
<svg version="1.1" xmlns="http://www.w3.org/2000/svg" width="2000" height="2504">
<path d="M0 0 C2.54310028 2.54310028 3.05677233 4.72011219 4.1796875 8.140625 C4.61130311 9.43623337 5.0432863 10.73171932 5.47558594 12.02709961 C5.70274292 12.71399872 5.9298999 13.40089783 6.16394043 14.10861206 C21.39626399 59.98144089 41.72836007 104.22186207 66 146 C66.87244975 147.51429186 67.74484881 149.02861292 68.6171875 150.54296875 C86.64308117 181.66435355 107.37262812 211.06166706 130 239 C130.68449219 239.84820312 131.36898438 240.69640625 132.07421875 241.5703125 C141.03298309 252.60390736 150.24433514 263.35250231 160.01635742 273.67480469 C162.75699269 276.57309603 165.43296191 279.49498122 168.015625 282.53515625 C173.2064857 288.50626707 178.87800692 294.02665127 184.47875977 299.60913086 C186.43295624 301.5579687 188.38175147 303.51209272 190.33007812 305.46679688 C195.85223277 310.99190523 201.34859923 316.49101832 207.30639648 321.55151367 C210.2359444 324.05706475 213.0089437 326.73047916 215.8125 329.375 C220.77973093 334.02315533 225.85576033 338.44478536 231.16796875 342.69921875 C234.44198441 345.35907423 237.62567791 348.11194576 240.8125 350.875 C245.58031222 355.00285066 250.4465716 358.95790799 255.4375 362.8125 C259.6581533 366.07739255 263.65826688 369.3873896 267.31445312 373.28417969 C269.03284445 375.03343436 270.82614238 376.61599414 272.69140625 378.20703125 C276.99512004 381.94617819 281.04412667 385.89574138 285.0625 389.9375 C285.73087891 390.60201172 286.39925781 391.26652344 287.08789062 391.95117188 C291.03953972 395.91050154 294.80309309 399.98054898 298.45678711 404.21606445 C300.34211564 406.39548157 302.29485217 408.50820609 304.25 410.625 C309.28716266 416.21522951 313.90512342 422.08940505 318.49365234 428.04785156 C320.06749444 430.08746929 321.65254662 432.1180559 323.23828125 434.1484375 C378.94637966 505.80009685 405.95696396 593.48026997 394.96875 683.91796875 C386.34443426 748.87652872 365.86096761 811.77649769 320 860 C289.7440864 891.8532755 274.57741715 931.22667414 273 975 C272.95875 976.0415625 272.9175 977.083125 272.875 978.15625 C272.07716885 1019.24455431 280.9526839 1064.74968429 310.29296875 1095.25390625 C311.18628906 1096.16011719 312.07960938 1097.06632812 313 1098 C313.71800781 1098.73089844 314.43601562 1099.46179687 315.17578125 1100.21484375 C327.17674033 1111.62818525 342.58779308 1118.40590386 358.375 1122.6875 C359.11717773 1122.89020508 359.85935547 1123.09291016 360.62402344 1123.30175781 C373.09303901 1126.50868797 385.55950823 1127.37857137 398.375 1127.3125 C399.11400543 1127.31067719 399.85301086 1127.30885437 400.6144104 1127.30697632 C413.91314081 1127.25212698 426.88719685 1126.32668669 440 1124 C440.94842773 1123.83371094 441.89685547 1123.66742187 442.87402344 1123.49609375 C463.54931141 1119.73568435 483.67015928 1113.38942154 502 1103 C502.99870117 1102.43974121 502.99870117 1102.43974121 504.01757812 1101.86816406 C514.21561306 1096.06350058 522.7593618 1089.32999104 531 1081 C531.79792969 1080.22398438 532.59585937 1079.44796875 533.41796875 1078.6484375 C549.6044616 1061.97491743 558.22215693 1039.34146337 563 1017 C563.2477417 1015.85047852 563.2477417 1015.85047852 563.50048828 1014.67773438 C577.53812993 945.7524784 561.36556705 848.01688582 523 790 C520.75248905 786.76875927 518.41189108 783.61151662 516.05029297 780.46313477 C496.86440277 754.86036513 484.71443316 725.00358192 477.125 694.0625 C476.85623047 692.96736084 476.85623047 692.96736084 476.58203125 691.85009766 C472.96641059 675.9351567 471.47316017 660.16619597 471.625 643.875 C471.63197906 642.5220433 471.63197906 642.5220433 471.63909912 641.14175415 C471.90192501 597.18099497 479.38830199 554.5616111 490 512 C490.46696289 510.10822021 490.46696289 510.10822021 490.94335938 508.17822266 C499.23705484 475.05378885 510.98267521 442.54417522 524 411 C524.33386719 410.17806152 524.66773438 409.35612305 525.01171875 408.50927734 C529.60776586 397.19611707 529.60776586 397.19611707 532 396 C532.17539307 397.29059326 532.35078613 398.58118652 532.53149414 399.91088867 C536.28794752 427.42182923 540.2541862 454.82585484 546 482 C546.14719482 482.69708069 546.29438965 483.39416138 546.44604492 484.11236572 C558.3105401 539.93679404 576.97896753 594.2623916 601 646 C601.82951172 647.78664063 601.82951172 647.78664063 602.67578125 649.609375 C609.99163487 665.2984223 617.8589784 680.57001576 626.57617188 695.53564453 C628.25365609 698.43902684 629.87474153 701.37070708 631.49072266 704.30859375 C648.38773003 734.91565586 669.0326708 763.75330795 690.265625 791.46191406 C694.37241083 796.82972939 698.38630928 802.24417766 702.28295898 807.76586914 C705.71073965 812.61875405 709.22113371 817.40770081 712.75 822.1875 C713.34167969 822.98929688 713.93335938 823.79109375 714.54296875 824.6171875 C717.55356504 828.69417211 720.56876088 832.76772757 723.5859375 836.83984375 C729.66429719 845.05302973 735.67338269 853.30434661 741.54052734 861.66992188 C745.06350028 866.6897803 748.64484544 871.66392447 752.25 876.625 C758.63278494 885.42375295 764.83715363 894.34246067 771.02734375 903.27734375 C773.52646002 906.88368638 776.03716074 910.48113191 778.56640625 914.06640625 C785.17797404 923.43982754 791.64405775 932.89433143 797.97998047 942.45629883 C802.60860805 949.43403374 807.2785809 956.38250616 811.97265625 963.31640625 C836.50637687 999.56347522 836.50637687 999.56347522 846.48291016 1015.57519531 C849.33365292 1020.13161261 852.23435709 1024.65633811 855.125 1029.1875 C856.86272225 1031.91896187 858.59938052 1034.65109798 860.3359375 1037.38330078 C861.41835683 1039.08537977 862.50164382 1040.7869074 863.5859375 1042.48779297 C867.08382423 1047.97543569 870.55746276 1053.47745505 874 1059 C874.77005371 1060.23363281 874.77005371 1060.23363281 875.55566406 1061.4921875 C896.32197353 1094.92401698 907.1614433 1130.80094072 911 1170 C911.0942627 1170.94512451 911.18852539 1171.89024902 911.28564453 1172.86401367 C912.16299336 1182.75576862 912.2433618 1192.6390735 912.25 1202.5625 C912.25101212 1203.93485306 912.25101212 1203.93485306 912.25204468 1205.33493042 C912.19581224 1253.88243977 909.07802409 1322.84395182 887 1367 C887.75168457 1366.64921387 888.50336914 1366.29842773 889.27783203 1365.93701172 C890.94405894 1365.15943916 892.61028626 1364.38186747 894.27651978 1363.60430908 C897.59617987 1362.05515975 900.91579871 1360.5059221 904.23535156 1358.95654297 C910.98162962 1355.80786801 917.72832931 1352.66010776 924.4765625 1349.515625 C937.70557713 1343.35003452 950.9221526 1337.15894293 964.125 1330.9375 C976.756305 1324.98554271 989.40881247 1319.08166242 1002.078125 1313.2109375 C1008.76045654 1310.11373592 1015.43506579 1307.00019424 1022.1081543 1303.88314819 C1023.98116548 1303.0087923 1025.85474509 1302.13566671 1027.72851562 1301.26293945 C1033.50501949 1298.57158366 1039.27755633 1295.87275398 1045.03625488 1293.14346313 C1047.64701316 1291.9072324 1050.26055417 1290.67695873 1052.87451172 1289.44750977 C1054.11772993 1288.86085707 1055.35961422 1288.27136858 1056.60009766 1287.67895508 C1058.30815148 1286.86350462 1060.02114428 1286.05842337 1061.734375 1285.25390625 C1062.70600586 1284.79314697 1063.67763672 1284.3323877 1064.67871094 1283.85766602 C1065.44473633 1283.57463623 1066.21076172 1283.29160645 1067 1283 C1067.66 1283.33 1068.32 1283.66 1069 1284 C1063.68470652 1290.12195048 1058.1337438 1295.9229856 1052.375 1301.625 C1048.07282667 1305.88524692 1043.90170552 1310.1479747 1040 1314.78125 C1036.3273033 1318.8556479 1032.36518413 1322.65275034 1028.46875 1326.51171875 C1025.36994552 1329.59207796 1022.31670228 1332.65516604 1019.5 1336 C1015.4619844 1340.79514352 1010.91874941 1345.1045078 1006.46875 1349.51171875 C1003.36994552 1352.59207796 1000.31670228 1355.65516604 997.5 1359 C993.4619844 1363.79514352 988.91874941 1368.1045078 984.46875 1372.51171875 C981.36994552 1375.59207796 978.31670228 1378.65516604 975.5 1382 C971.4619844 1386.79514352 966.91874941 1391.1045078 962.46875 1395.51171875 C959.36994552 1398.59207796 956.31670228 1401.65516604 953.5 1405 C949.4619844 1409.79514352 944.91874941 1414.1045078 940.46875 1418.51171875 C937.36994552 1421.59207796 934.31670228 1424.65516604 931.5 1428 C927.50285581 1432.74660873 923.01876691 1437.03021627 918.59179688 1441.37109375 C915.44497522 1444.47525776 912.41664009 1447.61881865 909.53125 1450.96875 C905.26860087 1455.91227222 900.61799832 1460.4321549 895.9609375 1465 C892.04013229 1468.87539047 888.34324905 1472.85496085 884.74609375 1477.03125 C881.81371565 1480.33755551 878.65415868 1483.40718115 875.5 1486.5 C869.82399606 1492.08451207 869.82399606 1492.08451207 864.5 1498 C860.4619844 1502.79514352 855.91874941 1507.1045078 851.46875 1511.51171875 C848.36994552 1514.59207796 845.31670228 1517.65516604 842.5 1521 C838.4619844 1525.79514352 833.91874941 1530.1045078 829.46875 1534.51171875 C826.36994552 1537.59207796 823.31670228 1540.65516604 820.5 1544 C816.4619844 1548.79514352 811.91874941 1553.1045078 807.46875 1557.51171875 C804.36994552 1560.59207796 801.31670228 1563.65516604 798.5 1567 C794.50285581 1571.74660873 790.01876691 1576.03021627 785.59179688 1580.37109375 C782.44497522 1583.47525776 779.41664009 1586.61881865 776.53125 1589.96875 C772.26860087 1594.91227222 767.61799832 1599.4321549 762.9609375 1604 C759.04013229 1607.87539047 755.34324905 1611.85496085 751.74609375 1616.03125 C748.81372011 1619.33755048 745.65420732 1622.40723565 742.5 1625.5 C737.89346766 1630.05677478 733.37359087 1634.6188014 729.19921875 1639.58203125 C728 1641 728 1641 726 1643 C723.55427147 1689.34342017 752.9664731 1737.17800969 782.625 1770.1875 C783.29789063 1770.92355469 783.97078125 1771.65960937 784.6640625 1772.41796875 C785.96082163 1773.85134297 787.25052168 1775.29154632 788.51025391 1776.75756836 C793.14658114 1782.15012376 798.07049737 1787.18748206 803.125 1792.1875 C803.91003906 1792.96802734 804.69507813 1793.74855469 805.50390625 1794.55273438 C809.52627785 1798.55154663 809.52627785 1798.55154663 813.56152344 1802.53735352 C824.94214857 1813.78816972 829.97144688 1827.37247218 830.25 1843.25 C829.48545904 1885.76697237 804.56311082 1926.76332413 780 1960 C778.90598009 1961.51615945 777.81465794 1963.03427067 776.7265625 1964.5546875 C767.81489697 1976.97606985 758.62343454 1989.1178106 749 2001 C748.31550781 2001.84820313 747.63101562 2002.69640625 746.92578125 2003.5703125 C741.25586037 2010.55337484 735.42022071 2017.38448444 729.54833984 2024.19726562 C728.02159309 2025.97485913 726.50358292 2027.75952015 724.98828125 2029.546875 C719.07517865 2036.51113149 713.02113926 2043.30837178 706.79296875 2049.9921875 C704.37132771 2052.59154113 701.9909822 2055.22475007 699.625 2057.875 C694.12316871 2064.0112767 688.47779389 2070.01233456 682.84375 2076.02685547 C681.01567163 2077.98322853 679.19431346 2079.94563244 677.375 2081.91015625 C671.24243039 2088.52449893 665.05770065 2095.04360397 658.59765625 2101.33984375 C656.5566416 2103.42996551 654.63597147 2105.53988405 652.7265625 2107.74609375 C632.05834122 2131.55018309 632.05834122 2131.55018309 619 2136 C617.865625 2136.45375 616.73125 2136.9075 615.5625 2137.375 C605.15305664 2139.20121813 596.20460285 2138.46192669 587 2133 C583.99507053 2130.58679466 581.49407825 2127.93067838 579 2125 C578.44183594 2124.35933594 577.88367187 2123.71867187 577.30859375 2123.05859375 C576.16375575 2121.74375661 575.01923624 2120.42864211 573.875 2119.11328125 C551.94827551 2094.40003552 522.86444896 2078.14881119 490 2074 C474.00652965 2073.210199 457.6008229 2073.05592888 442 2077 C440.94570801 2077.26538574 440.94570801 2077.26538574 439.87011719 2077.53613281 C421.73437288 2082.28538471 407.95962577 2091.86669691 398 2108 C380.40743461 2139.85793165 378.73069623 2186.11788667 387 2221 C387.18804199 2221.8048584 387.37608398 2222.6097168 387.56982422 2223.43896484 C398.86968267 2269.65421727 430.92325929 2301.35124911 470 2326 C471.78621942 2327.02872202 473.57394922 2328.05482657 475.36328125 2329.078125 C481.29185679 2332.60631925 484.43709445 2337.18144202 488 2343 C488.38285156 2343.62003906 488.76570313 2344.24007812 489.16015625 2344.87890625 C491.68276546 2349.74812869 491.96090594 2355.68096951 491 2361 C488.31766557 2365.69743718 485.61132154 2368.31700182 481.07421875 2371.21484375 C480.21130722 2371.77331245 480.21130722 2371.77331245 479.33096313 2372.34306335 C477.45678284 2373.55247646 475.57238094 2374.74484765 473.6875 2375.9375 C472.36991464 2376.78379245 471.05310983 2377.63130127 469.73706055 2378.47998047 C467.08060085 2380.19110449 464.42044834 2381.89622402 461.75683594 2383.59619141 C456.58367663 2386.90078316 451.4488125 2390.26353894 446.3125 2393.625 C444.45465307 2394.83628418 442.59657845 2396.04721921 440.73828125 2397.2578125 C434.48804835 2401.33221488 428.24389617 2405.41589585 422 2409.5 C412.8354074 2415.49410965 403.66936069 2421.48596881 394.49243164 2427.46118164 C389.63511929 2430.6244847 384.7848537 2433.79784357 379.9453125 2436.98828125 C342.48932677 2461.64645238 342.48932677 2461.64645238 325.43359375 2458.53125 C309.81624195 2454.42527957 297.36685648 2442.64715237 288 2430 C287.50757813 2429.35675781 287.01515625 2428.71351563 286.5078125 2428.05078125 C279.0581702 2417.38529957 277.31143104 2405.07936527 277.36776733 2392.45288086 C277.38032146 2388.629221 277.30339706 2384.80721158 277.23046875 2380.984375 C277.21705948 2380.2205249 277.20365021 2379.4566748 277.18983459 2378.66967773 C276.95318616 2367.36379696 275.65560673 2356.17858263 274 2345 C273.79334717 2343.58388428 273.79334717 2343.58388428 273.58251953 2342.13916016 C271.51812495 2328.44041784 271.51812495 2328.44041784 263 2318 C261.98588974 2317.12626286 260.97296976 2316.2511432 259.9609375 2315.375 C245.19313286 2302.91593176 228.25149384 2293.94549118 208.4140625 2294.6171875 C198.57202576 2295.72075684 190.03794627 2299.30011383 182 2305 C180.95392578 2305.73476563 180.95392578 2305.73476563 179.88671875 2306.484375 C166.30911934 2317.13554036 161.67827646 2334.49818589 159.6875 2350.875 C158.5487997 2361.38447253 158.95962218 2371.52697566 160.3125 2382 C160.43044922 2383.00289062 160.54839844 2384.00578125 160.66992188 2385.0390625 C161.04794304 2388.03996901 161.50586638 2391.01617388 162 2394 C162.11649902 2394.84691406 162.23299805 2395.69382812 162.35302734 2396.56640625 C164.33529729 2406.6607644 171.20061516 2414.75983058 177 2423 C194.13924008 2447.3526246 194.13924008 2447.3526246 192 2460 C188.88099602 2471.16443476 183.07490056 2479.71751765 174 2487 C154.17658023 2495.91302189 130.38212178 2498.03266308 109 2501 C107.82566406 2501.16661133 106.65132812 2501.33322266 105.44140625 2501.50488281 C58.67199556 2507.85742088 -26.2529311 2513.21767705 -68.03051758 2485.66064453 C-75.42781713 2479.8608592 -79.05014934 2472.03179619 -81 2463 C-81.34928344 2459.09163877 -81.33237643 2455.2331031 -81.25 2451.3125 C-81.24226562 2449.82266602 -81.24226562 2449.82266602 -81.234375 2448.30273438 C-81.20490995 2445.53117819 -81.11394842 2442.76918671 -81 2440 C-80.97035156 2438.81921875 -80.94070313 2437.6384375 -80.91015625 2436.421875 C-79.50892005 2431.153708 -76.39715225 2427.28262722 -73.1875 2422.9375 C-71.9306075 2421.19689042 -70.67408764 2419.45601169 -69.41796875 2417.71484375 C-68.85875732 2416.95292725 -68.2995459 2416.19101074 -67.72338867 2415.40600586 C-66.87031128 2414.21503296 -66.87031128 2414.21503296 -66 2413 C-65.01 2411.71367676 -65.01 2411.71367676 -64 2410.40136719 C-61.27559639 2405.76801867 -59.99979499 2401.02440837 -58.58203125 2395.86328125 C-58.27931808 2394.7880571 -57.97660492 2393.71283295 -57.66471863 2392.60502625 C-57.02846938 2390.33458509 -56.39758223 2388.06263532 -55.77172852 2385.78930664 C-54.8193998 2382.33750892 -53.84559266 2378.89230662 -52.86914062 2375.44726562 C-52.251301 2373.2321339 -51.63472366 2371.01664963 -51.01953125 2368.80078125 C-50.73100784 2367.78268875 -50.44248444 2366.76459625 -50.1452179 2365.71565247 C-46.18011727 2351.16619433 -45.89554198 2338.33935109 -53.2578125 2324.8125 C-61.24664659 2311.91572748 -76.58253703 2301.95429889 -91.01171875 2297.359375 C-103.08955942 2295.17634682 -113.34998307 2299.05191864 -123.29638672 2305.76416016 C-152.99675913 2327.3094862 -162.23739348 2365.55775454 -168 2400 C-169.56613868 2410.74131681 -170.80925686 2421.54709551 -171.34375 2432.390625 C-171.40344971 2433.3997998 -171.46314941 2434.40897461 -171.5246582 2435.44873047 C-171.6303048 2437.34720132 -171.70370933 2439.24784547 -171.73901367 2441.14892578 C-171.88428915 2443.66879498 -172.06567144 2445.65355793 -173 2448 C-175.45138043 2450.04010289 -177.98000695 2451.04747004 -181 2452 C-181.69399902 2452.2278418 -182.38799805 2452.45568359 -183.10302734 2452.69042969 C-195.00640317 2456.32132367 -206.13821539 2452.55746714 -216.85473633 2447.06201172 C-220.67701492 2445.16979459 -224.6289682 2443.5818729 -228.5625 2441.9375 C-267.40344127 2425.41244499 -304.31425405 2404.09079325 -336 2376 C-337.43472656 2374.7315625 -337.43472656 2374.7315625 -338.8984375 2373.4375 C-344.95618677 2367.98065347 -350.78458899 2362.31312301 -356.5625 2356.5625 C-357.25384033 2355.87583252 -357.94518066 2355.18916504 -358.6574707 2354.48168945 C-359.6333313 2353.50268677 -359.6333313 2353.50268677 -360.62890625 2352.50390625 C-361.20713135 2351.92455322 -361.78535645 2351.3452002 -362.38110352 2350.74829102 C-370.35806324 2342.13375195 -370.67066059 2330.27601739 -370.26171875 2319.0390625 C-369.64377164 2308.28930502 -369.64377164 2308.28930502 -367 2304 C-363.65534695 2301.53274115 -359.88230541 2300.41058517 -356 2299 C-352.82400436 2297.62584639 -349.69153038 2296.16507203 -346.5625 2294.6875 C-345.32512085 2294.10440063 -345.32512085 2294.10440063 -344.06274414 2293.50952148 C-333.33534852 2288.36024389 -324.1524157 2281.5749796 -315 2274 C-314.43667969 2273.56042969 -313.87335937 2273.12085937 -313.29296875 2272.66796875 C-290.63925714 2254.79604323 -279.4872676 2223.53095481 -276.0324707 2195.96118164 C-273.03050974 2169.14072319 -276.22973403 2141.95380272 -293 2120 C-308.90088444 2100.84526662 -336.72563776 2090.98703005 -360.82006836 2088.1940918 C-383.63828429 2086.16245537 -402.05065869 2090.7303715 -419.94140625 2105.359375 C-430.91379165 2114.67342231 -440.35475287 2127.31379122 -445.52734375 2140.84375 C-447.93343999 2146.00058226 -452.04504889 2147.59539137 -457 2150 C-458.03640625 2150.51433594 -458.03640625 2150.51433594 -459.09375 2151.0390625 C-467.76443501 2154.60738287 -479.15019804 2154.3288188 -487.9375 2151.375 C-497.39859335 2147.322263 -504.51520696 2140.91739744 -512 2134 C-514.02850543 2132.22328458 -516.06778063 2130.46021447 -518.11328125 2128.703125 C-522.38906535 2124.84341099 -526.35596005 2120.63701057 -530.4140625 2116.55078125 C-531.95534199 2115.00213672 -533.49709568 2113.45396602 -535.0390625 2111.90600586 C-536.10082189 2110.83917957 -537.16168758 2109.77146312 -538.22167969 2108.70288086 C-539.76262087 2107.14981938 -541.30676203 2105.60000281 -542.8515625 2104.05078125 C-543.76760254 2103.12950439 -544.68364258 2102.20822754 -545.62744141 2101.2590332 C-547.98090144 2098.88848895 -547.98090144 2098.88848895 -551 2097 C-551 2096.34 -551 2095.68 -551 2095 C-551.53971436 2094.78553223 -552.07942871 2094.57106445 -552.63549805 2094.35009766 C-555.8489613 2092.51525493 -558.25426999 2090.01140511 -560.83203125 2087.3984375 C-561.38686691 2086.84314362 -561.94170258 2086.28784973 -562.51335144 2085.71572876 C-563.68648789 2084.53957558 -564.85719729 2083.36099724 -566.02563477 2082.18017578 C-567.79075734 2080.39696546 -569.56358023 2078.62171976 -571.33789062 2076.84765625 C-576.50115085 2071.66771712 -581.56235627 2066.47147639 -586.3112793 2060.90478516 C-589.84579086 2056.91804824 -593.70433293 2053.23570393 -597.5 2049.5 C-602.67956642 2044.40225927 -607.75395007 2039.29953662 -612.4609375 2033.7578125 C-614.06849689 2031.92176752 -615.75761464 2030.20789027 -617.5 2028.5 C-620.51072823 2025.53600148 -623.29243751 2022.43281403 -626.05078125 2019.234375 C-628.33020694 2016.62148624 -630.66212353 2014.06069979 -633 2011.5 C-637.05715856 2007.04687251 -641.0641875 2002.56054465 -645 1998 C-645.43570312 1997.49597656 -645.87140625 1996.99195313 -646.3203125 1996.47265625 C-652.99773273 1988.7418462 -659.5852531 1980.95127757 -666 1973 C-666.44811035 1972.44763672 -666.8962207 1971.89527344 -667.35791016 1971.32617188 C-695.3450949 1936.81337959 -726.01237543 1897.88979316 -737 1854 C-737.22300781 1853.11957031 -737.44601562 1852.23914062 -737.67578125 1851.33203125 C-740.65695415 1837.60241186 -740.23350525 1823.24013614 -733.3125 1810.8125 C-724.74230414 1797.61314725 -712.15444516 1791.28430929 -697.76513672 1786.14355469 C-665.2571281 1774.43338244 -646.5393146 1743.59568399 -632.54003906 1713.84570312 C-625.65514881 1698.80749288 -619.22715687 1683.00775799 -615 1667 C-615.60585938 1666.45472656 -616.21171875 1665.90945313 -616.8359375 1665.34765625 C-618.60950449 1663.75144595 -620.38293071 1662.15507923 -622.15625 1660.55859375 C-623.92603077 1658.96627726 -625.69670363 1657.37495102 -627.46875 1655.78515625 C-632.04641399 1651.67566244 -636.59736671 1647.53940103 -641.125 1643.375 C-644.99367822 1639.81746901 -648.90334125 1636.31710425 -652.875 1632.875 C-656.15508581 1629.98080664 -659.36268057 1627.00781108 -662.58032227 1624.04467773 C-665.33473428 1621.51259884 -668.10742499 1619.00964732 -670.9375 1616.5625 C-675.12032011 1612.93855356 -679.16271807 1609.16744254 -683.22021484 1605.40478516 C-686.73212744 1602.15384488 -690.29001418 1598.97015687 -693.91015625 1595.83984375 C-697.18114489 1592.96015095 -700.37503091 1589.99645747 -703.58056641 1587.04443359 C-706.33491097 1584.51245176 -709.1075121 1582.00957199 -711.9375 1579.5625 C-716.12032011 1575.93855356 -720.16271807 1572.16744254 -724.22021484 1568.40478516 C-727.73212744 1565.15384488 -731.29001418 1561.97015687 -734.91015625 1558.83984375 C-738.18114489 1555.96015095 -741.37503091 1552.99645747 -744.58056641 1550.04443359 C-747.33491097 1547.51245176 -750.1075121 1545.00957199 -752.9375 1542.5625 C-757.12032011 1538.93855356 -761.16271807 1535.16744254 -765.22021484 1531.40478516 C-768.73482029 1528.15135213 -772.29608667 1524.96591238 -775.91796875 1521.83203125 C-779.13491793 1519.00135739 -782.2797068 1516.09232984 -785.43334961 1513.19165039 C-790.25603882 1508.75763061 -795.12349669 1504.37474091 -800 1500 C-801.66692647 1498.50028872 -803.33359149 1497.00028679 -805 1495.5 C-805.825 1494.7575 -806.65 1494.015 -807.5 1493.25 C-815 1486.5 -815 1486.5 -817.5078125 1484.2421875 C-819.14739879 1482.76707382 -820.78799655 1481.29308348 -822.4296875 1479.8203125 C-827.0203061 1475.69902232 -831.58447107 1471.55126212 -836.125 1467.375 C-839.99367822 1463.81746901 -843.90334125 1460.31710425 -847.875 1456.875 C-851.15508581 1453.98080664 -854.36268057 1451.00781108 -857.58032227 1448.04467773 C-860.33473428 1445.51259884 -863.10742499 1443.00964732 -865.9375 1440.5625 C-870.12032011 1436.93855356 -874.16271807 1433.16744254 -878.22021484 1429.40478516 C-881.73212744 1426.15384488 -885.29001418 1422.97015687 -888.91015625 1419.83984375 C-892.18114489 1416.96015095 -895.37503091 1413.99645747 -898.58056641 1411.04443359 C-901.33491097 1408.51245176 -904.1075121 1406.00957199 -906.9375 1403.5625 C-910.5523786 1400.43162188 -914.05730343 1397.18977996 -917.5625 1393.9375 C-921.96123843 1389.85620281 -926.39786649 1385.85294899 -931 1382 C-927.29835284 1380.76611761 -926.2598536 1381.37952704 -922.65380859 1382.7121582 C-921.54896622 1383.11531754 -920.44412384 1383.51847687 -919.30580139 1383.93385315 C-917.49540627 1384.61048256 -917.49540627 1384.61048256 -915.6484375 1385.30078125 C-914.37537325 1385.76915408 -913.10200507 1386.23670156 -911.82835388 1386.70347595 C-908.3901111 1387.96608939 -904.95612781 1389.23993608 -901.52276993 1390.51576233 C-897.92351826 1391.8509423 -894.32036323 1393.17550039 -890.7175293 1394.50097656 C-884.88542859 1396.64792805 -879.05541111 1398.8004355 -873.22705078 1400.95751953 C-866.07058959 1403.60591236 -858.90987201 1406.24254882 -851.74609375 1408.87109375 C-850.73822815 1409.24091873 -849.73036255 1409.61074371 -848.69195557 1409.99177551 C-846.70938699 1410.71920067 -844.72680264 1411.44658283 -842.74420166 1412.17391968 C-839.79114203 1413.25783944 -836.83859678 1414.34314839 -833.88623047 1415.42895508 C-817.11054711 1421.59850674 -800.32240582 1427.73371892 -783.53100586 1433.86035156 C-772.40726508 1437.9202928 -761.28907813 1441.9946901 -750.1796875 1446.09375 C-747.9244842 1446.92514385 -745.66927594 1447.75652426 -743.4140625 1448.58789062 C-739.1602281 1450.15620128 -734.90785111 1451.72838113 -730.65625 1453.30273438 C-728.72661533 1454.01446616 -726.79693053 1454.72606207 -724.8671875 1455.4375 C-724.01220673 1455.75537476 -723.15722595 1456.07324951 -722.27633667 1456.40075684 C-716.57913444 1458.49623739 -710.83220357 1460.31743833 -705 1462 C-705.40726318 1461.351521 -705.81452637 1460.70304199 -706.23413086 1460.03491211 C-713.93909964 1447.75848068 -721.6401815 1435.48720672 -729 1423 C-729.50321777 1422.15066895 -730.00643555 1421.30133789 -730.52490234 1420.42626953 C-779.2805797 1338.05775424 -820.45585405 1248.45124718 -836.1875 1120.4375 C-836.27153076 1119.14231445 -836.35556152 1117.84712891 -836.44213867 1116.51269531 C-838.70429713 1078.1562702 -834.19000323 1039.73907755 -823 1003 C-822.72961914 1002.09282227 -822.45923828 1001.18564453 -822.18066406 1000.25097656 C-809.42312848 957.88721398 -786.34346558 918.76735187 -756.7736969 885.97427368 C-755.54527542 884.60693736 -754.32352498 883.23358935 -753.10716248 881.85551453 C-747.72791491 875.79686482 -742.12470623 870.00065531 -736.37298203 864.29781723 C-734.82200858 862.75988856 -733.27442775 861.2186114 -731.72756958 859.67654419 C-728.44623016 856.40649219 -725.16092855 853.1404397 -721.875 849.875 C-718.05358179 846.07735379 -714.2338997 842.27799276 -710.41843033 838.47436905 C-708.90789029 836.97021813 -707.39432921 835.46915608 -705.88058472 833.9682312 C-701.22197139 829.32613938 -696.70118669 824.6418728 -692.42214966 819.64700317 C-690.71894129 817.6745036 -688.92318041 815.82403681 -687.0625 814 C-686.39476562 813.34 -685.72703125 812.68 -685.0390625 812 C-683.6796875 810.66666667 -682.3203125 809.33333333 -680.9609375 808 C-680.29320312 807.34 -679.62546875 806.68 -678.9375 806 C-678.05384766 805.13375 -678.05384766 805.13375 -677.15234375 804.25 C-675.31145634 802.32558775 -673.57578687 800.36159615 -671.83959961 798.34399414 C-667.64209886 793.51907823 -663.15491537 789.01113866 -658.62890625 784.49609375 C-657.74774643 783.6139772 -656.86658661 782.73186066 -655.95872498 781.82301331 C-653.6342325 779.49767191 -651.30734093 777.17476382 -648.97961426 774.85266113 C-647.56355322 773.43855176 -646.14945679 772.02250879 -644.73608398 770.60571289 C-641.99471744 767.8581328 -639.24986966 765.11407894 -636.50390625 762.37109375 C-635.25354332 761.11769447 -635.25354332 761.11769447 -633.97792053 759.838974 C-629.657511 755.53563784 -625.26902439 751.38106176 -620.63560486 747.41542053 C-618.6561044 745.70239946 -616.81783843 743.88276124 -615 742 C-611.89286078 738.85079119 -608.67509696 735.92023033 -605.3203125 733.0390625 C-602.95974014 730.96462012 -600.6608639 728.83548347 -598.36450195 726.69067383 C-593.04165239 721.72118274 -587.62576324 716.97273403 -581.9453125 712.41015625 C-578.40081803 709.50968797 -574.95037454 706.51124382 -571.5 703.5 C-566.36929481 699.03057716 -561.19747018 694.63122588 -555.90625 690.3515625 C-553.75050194 688.60726098 -551.60623636 686.85233248 -549.46875 685.0859375 C-542.01312318 678.94600953 -534.43519198 673.01791111 -526.6875 667.25 C-516.25968123 659.48132892 -506.32043778 651.41897822 -496.7890625 642.5703125 C-494.4549045 640.41922571 -492.09253383 638.32074342 -489.6875 636.25 C-474.31939396 622.88228793 -462.21157164 606.29938581 -451.0625 589.375 C-450.417435 588.40137512 -450.417435 588.40137512 -449.75933838 587.40808105 C-439.15399325 571.39596452 -429.3263848 554.99841961 -420.15722656 538.12207031 C-419.06195929 536.11361817 -417.95038025 534.1150424 -416.8359375 532.1171875 C-384.35494779 473.17459367 -367.17815799 406.4295991 -359 340 C-326.83978131 368.51457334 -319.78990772 448.58693516 -317.31529236 488.73348999 C-316.87723508 496.50750452 -316.75616425 504.27725507 -316.75 512.0625 C-316.74898788 513.23829117 -316.74898788 513.23829117 -316.74795532 514.43783569 C-316.78781113 544.19373604 -319.50155859 573.75482617 -325 603 C-325.13728516 603.73071716 -325.27457031 604.46143433 -325.41601562 605.21429443 C-332.3895255 642.03919915 -342.65798002 677.63786113 -355 713 C-355.40653809 714.17224121 -355.81307617 715.34448242 -356.23193359 716.55224609 C-374.26147826 768.12512967 -398.07583996 819.4377503 -425.17285156 866.88183594 C-432.06907852 879.09576186 -436.61065217 892.13676303 -440.875 905.4375 C-441.13323547 906.23791718 -441.39147095 907.03833435 -441.65753174 907.86300659 C-468.50184342 991.31640303 -484.09351026 1087.47854717 -443.07836914 1168.98339844 C-430.44173591 1193.22761257 -411.61377254 1214.50246661 -389.70166016 1230.73388672 C-388.0815916 1231.9392921 -386.48346855 1233.17402748 -384.88671875 1234.41015625 C-334.63328212 1272.62395038 -259.25441208 1293.19962228 -196.5 1293.25 C-195.36499557 1293.25101212 -195.36499557 1293.25101212 -194.20706177 1293.25204468 C-182.86785043 1293.23599091 -172.03910564 1292.74860323 -161 1290 C-160.32904297 1289.8443457 -159.65808594 1289.68869141 -158.96679688 1289.52832031 C-127.99930319 1282.23071244 -100.32263388 1262.78562691 -83.18261719 1235.91455078 C-50.991637 1183.80025132 -42.99630526 1121.10185477 -42.5625 1060.875 C-42.54431213 1059.57548904 -42.54431213 1059.57548904 -42.52575684 1058.24972534 C-42.10324448 1022.91397298 -57.00311475 994.19844602 -81 969 C-82.15048828 967.73542969 -82.15048828 967.73542969 -83.32421875 966.4453125 C-88.77422435 960.65294662 -94.72847195 956.22067645 -101.25268555 951.7487793 C-112.36670225 944.08280422 -122.70042352 935.30036625 -132.62890625 926.16015625 C-134.63242281 924.33487675 -136.66614767 922.5621828 -138.71875 920.79296875 C-143.30393304 916.78833722 -147.63613257 912.55595116 -151.9375 908.25 C-152.73091797 907.45577637 -153.52433594 906.66155273 -154.34179688 905.84326172 C-159.19932496 900.93475957 -163.77129594 895.98308664 -168.01953125 890.53515625 C-170.15789936 887.79787637 -172.41716569 885.19111573 -174.6875 882.5625 C-186.67888465 868.15424712 -196.74688011 852.26922178 -206 836 C-206.4326416 835.24460937 -206.8652832 834.48921875 -207.31103516 833.7109375 C-227.6872106 797.764953 -239.39190858 756.76868071 -245 716 C-245.18336914 714.7015918 -245.36673828 713.40318359 -245.55566406 712.06542969 C-250.60700291 675.54197094 -252.42905524 636.44185939 -246 600 C-245.75056641 598.55197998 -245.75056641 598.55197998 -245.49609375 597.07470703 C-236.52846132 546.98051585 -211.44718743 500.91970252 -170.5 470.0625 C-138.88911503 446.08436396 -123.51249552 407.23751434 -118.125 368.9375 C-114.84119772 341.8775087 -116.44880624 313.93187216 -120 287 C-120.14405273 285.90751953 -120.28810547 284.81503906 -120.43652344 283.68945312 C-121.23016669 277.78301969 -122.08356474 271.88858403 -123 266 C-119.92737605 268.84211486 -117.89658611 271.59941655 -115.8984375 275.26953125 C-115.047052 276.83199585 -115.047052 276.83199585 -114.1784668 278.42602539 C-113.28575073 280.10233032 -113.28575073 280.10233032 -112.375 281.8125 C-111.75471924 282.97450928 -111.13443848 284.13651855 -110.49536133 285.33374023 C-92.15483451 320.00476371 -80.32369611 357.34529422 -74 396 C-73.7522583 397.44197754 -73.7522583 397.44197754 -73.49951172 398.91308594 C-67.92194023 432.70151798 -68.67357394 470.23334352 -74 504 C-74.17692383 505.19415527 -74.35384766 506.38831055 -74.53613281 507.61865234 C-76.7044842 522.18855059 -79.45826827 536.52371905 -82.8984375 550.84472656 C-85.19189706 560.49586855 -86.80295145 570.15654102 -88 580 C-88.19722656 581.546875 -88.19722656 581.546875 -88.3984375 583.125 C-92.85171948 625.49135827 -82.85154484 667.62347034 -56.17236328 701.05444336 C-44.29028382 715.52961927 -29.98286008 726.42587699 -14 736 C-13.28521484 736.42925781 -12.57042969 736.85851562 -11.83398438 737.30078125 C1.85107372 745.41131098 16.09764218 751.48724418 31 757 C31.79970215 757.29696777 32.5994043 757.59393555 33.42333984 757.89990234 C55.17242357 765.86661751 84.90876622 766.36374459 107 759 C108.093125 758.649375 109.18625 758.29875 110.3125 757.9375 C126.05932035 752.15295375 138.02359371 740.18041691 145.31762695 725.32836914 C170.42853788 670.72576768 142.88076278 597.69080937 123.6875 544.9375 C114.42492391 519.91414504 103.95646156 495.32295407 93 471 C92.52353027 469.93346191 92.04706055 468.86692383 91.55615234 467.76806641 C84.03839831 450.97139751 75.73918861 434.80694101 66.62109375 418.828125 C47.08476189 384.43755142 30.87547289 348.3870868 18 311 C17.76819031 310.32755249 17.53638062 309.65510498 17.29754639 308.96228027 C2.71074466 266.5058979 -7.3715043 222.69922736 -12 178 C-12.08613556 177.18506073 -12.17227112 176.37012146 -12.26101685 175.53048706 C-13.96823747 158.91812741 -14.36488135 142.39457818 -14.31805801 125.70185089 C-14.31240868 123.65440288 -14.30959349 121.6069632 -14.30697632 119.55950928 C-14.11121692 14.11121692 -14.11121692 14.11121692 0 0 Z M69 1972 C67.65421875 1973.43666016 67.65421875 1973.43666016 66.28125 1974.90234375 C58.2218421 1983.50378098 50.152333 1992.09558773 42.0703125 2000.67578125 C39.27001481 2003.6491463 36.47363584 2006.62613697 33.6796875 2009.60546875 C32.9693335 2010.362229 32.25897949 2011.11898926 31.52709961 2011.89868164 C30.18065706 2013.33321951 28.83505138 2014.76854354 27.49047852 2016.20483398 C24.45552214 2019.43638673 21.39220264 2022.62626859 18.24609375 2025.75 C15.93236423 2028.04781309 13.72381738 2030.37640788 11.625 2032.875 C9.03365795 2035.8846753 6.32745217 2038.71088616 3.5 2041.5 C0.71378859 2044.2485599 -1.95308392 2047.02859791 -4.5 2050 C-7.75164628 2053.79358733 -11.25713094 2057.27392647 -14.8125 2060.78125 C-16.79720342 2062.79430632 -18.66096916 2064.85446403 -20.5 2067 C-23.74924673 2070.79078785 -27.25186032 2074.26878424 -30.8046875 2077.7734375 C-33.43034345 2080.43646934 -35.85979205 2083.23255606 -38.29296875 2086.0703125 C-41.05221581 2089.18946136 -44.01587975 2092.09751222 -47 2095 C-43.01644165 2100.79721094 -38.45283981 2105.65938494 -33.43359375 2110.57421875 C-30.80146696 2113.19789569 -28.37781452 2115.9342164 -25.9609375 2118.75390625 C-23.44426438 2121.63654977 -20.85048243 2124.44302561 -18.25 2127.25 C-17.74194824 2127.79849609 -17.23389648 2128.34699219 -16.71044922 2128.91210938 C-15.66899586 2130.0363424 -14.62749144 2131.16052813 -13.5859375 2132.28466797 C-10.96518923 2135.1192396 -8.35728249 2137.96554611 -5.75 2140.8125 C-5.27208008 2141.33424805 -4.79416016 2141.85599609 -4.30175781 2142.39355469 C-3.20097427 2143.59552219 -2.10045478 2144.79773149 -1 2146 C6.59108837 2143.69870163 13.51482045 2140.49597902 20.625 2137 C22.80404139 2135.93617555 24.98371212 2134.87363905 27.1640625 2133.8125 C28.17968262 2133.31242432 29.19530273 2132.81234863 30.24169922 2132.29711914 C32.47554098 2131.24663222 34.6629055 2130.37975351 36.984375 2129.55859375 C40.91413753 2127.52753773 42.54065668 2124.80417941 44.625 2121.0625 C45.47418892 2119.62359656 46.32587884 2118.18616702 47.1796875 2116.75 C47.62924805 2115.98429687 48.07880859 2115.21859375 48.54199219 2114.4296875 C51.1608626 2110.06548818 53.96258423 2105.8202317 56.75 2101.5625 C57.28061035 2100.74724854 57.8112207 2099.93199707 58.35791016 2099.09204102 C61.86852996 2093.70335469 65.4225846 2088.34454352 69 2083 C72.37950062 2086.22271966 75.10395542 2089.38655612 77.625 2093.3125 C78.30820312 2094.36050781 78.99140625 2095.40851562 79.6953125 2096.48828125 C80.06301758 2097.05240723 80.43072266 2097.6165332 80.80957031 2098.19775391 C83.40666963 2102.12962165 86.10843706 2105.99104609 88.79150391 2109.86450195 C89.43611572 2110.79782349 89.43611572 2110.79782349 90.09375 2111.75 C90.56208252 2112.40709961 91.03041504 2113.06419922 91.51293945 2113.74121094 C93 2116 93 2116 94.44604492 2118.82910156 C100.3861144 2129.5855595 109.44971849 2132.99759591 120.3125 2137.75 C122.08276198 2138.559485 123.85165771 2139.37196486 125.61914062 2140.1875 C133.52813301 2144.26892662 133.52813301 2144.26892662 142 2146 C143.43307078 2144.74597206 143.43307078 2144.74597206 144.8125 2142.9375 C148.36248648 2138.6940979 152.08598705 2134.65349909 155.875 2130.625 C160.54216357 2125.64730348 165.16323729 2120.63754198 169.703125 2115.54296875 C171.48719789 2113.5677452 173.28821843 2111.61640304 175.109375 2109.67578125 C175.64997559 2109.09779785 176.19057617 2108.51981445 176.74755859 2107.92431641 C177.8040676 2106.79680289 178.86409602 2105.67257306 179.92822266 2104.55224609 C182.7328856 2101.55383693 185.03820687 2098.60996628 187 2095 C178.88929593 2086.31400358 170.75459347 2077.68565014 162.30078125 2069.33203125 C160.31662809 2067.32092864 158.45470725 2065.2752399 156.625 2063.125 C153.43870567 2059.38456753 149.99119746 2055.95196502 146.5 2052.5 C143.07154618 2049.10994409 139.67739237 2045.74805967 136.5625 2042.0625 C133.25427342 2038.15730021 129.63486259 2034.59719074 126 2031 C121.81155484 2026.8549191 117.7732928 2022.69083638 113.96875 2018.1875 C110.51233027 2014.34703363 106.78697405 2010.76845378 103.11547852 2007.13500977 C99.54301767 2003.58542182 96.15395599 1999.96842121 92.90234375 1996.12109375 C89.68296979 1992.53152484 86.21190165 1989.19025356 82.78173828 1985.8034668 C79.09244558 1982.14372712 75.59042376 1978.39251066 72.26953125 1974.390625 C71.02942844 1972.8651137 71.02942844 1972.8651137 69 1972 Z " fill="#FE0808" transform="translate(931,0)"/>
<path d="M0 0 C0.66 0 1.32 0 2 0 C2.12677124 0.98504517 2.12677124 0.98504517 2.25610352 1.98999023 C8.73356843 50.96335794 28.37974361 92.00925977 61.6640625 128.41796875 C62.96082163 129.85134297 64.25052168 131.29154632 65.51025391 132.75756836 C70.14658114 138.15012376 75.07049737 143.18748206 80.125 148.1875 C80.91003906 148.96802734 81.69507813 149.74855469 82.50390625 150.55273438 C86.52627785 154.55154663 86.52627785 154.55154663 90.56152344 158.53735352 C101.94214857 169.78816972 106.97144688 183.37247218 107.25 199.25 C106.48545904 241.76697237 81.56311082 282.76332413 57 316 C55.90598009 317.51615945 54.81465794 319.03427067 53.7265625 320.5546875 C44.81489697 332.97606985 35.62343454 345.1178106 26 357 C25.31550781 357.84820313 24.63101562 358.69640625 23.92578125 359.5703125 C18.25586037 366.55337484 12.42022071 373.38448444 6.54833984 380.19726562 C5.02159309 381.97485913 3.50358292 383.75952015 1.98828125 385.546875 C-3.92482135 392.51113149 -9.97886074 399.30837178 -16.20703125 405.9921875 C-18.62867229 408.59154113 -21.0090178 411.22475007 -23.375 413.875 C-28.87683129 420.0112767 -34.52220611 426.01233456 -40.15625 432.02685547 C-41.98432837 433.98322853 -43.80568654 435.94563244 -45.625 437.91015625 C-51.75756961 444.52449893 -57.94229935 451.04360397 -64.40234375 457.33984375 C-66.4433584 459.42996551 -68.36402853 461.53988405 -70.2734375 463.74609375 C-90.94165878 487.55018309 -90.94165878 487.55018309 -104 492 C-105.134375 492.45375 -106.26875 492.9075 -107.4375 493.375 C-117.84694336 495.20121813 -126.79539715 494.46192669 -136 489 C-139.00492947 486.58679466 -141.50592175 483.93067838 -144 481 C-144.55816406 480.35933594 -145.11632813 479.71867187 -145.69140625 479.05859375 C-146.83624425 477.74375661 -147.98076376 476.42864211 -149.125 475.11328125 C-171.05172449 450.40003552 -200.13555104 434.14881119 -233 430 C-248.99347035 429.210199 -265.3991771 429.05592888 -281 433 C-281.70286133 433.17692383 -282.40572266 433.35384766 -283.12988281 433.53613281 C-301.26562712 438.28538471 -315.04037423 447.86669691 -325 464 C-342.59256539 495.85793165 -344.26930377 542.11788667 -336 577 C-335.81195801 577.8048584 -335.62391602 578.6097168 -335.43017578 579.43896484 C-324.13031733 625.65421727 -292.07674071 657.35124911 -253 682 C-251.21378058 683.02872202 -249.42605078 684.05482657 -247.63671875 685.078125 C-241.70814321 688.60631925 -238.56290555 693.18144202 -235 699 C-234.42572266 699.93005859 -234.42572266 699.93005859 -233.83984375 700.87890625 C-231.31723454 705.74812869 -231.03909406 711.68096951 -232 717 C-234.68233443 721.69743718 -237.38867846 724.31700182 -241.92578125 727.21484375 C-242.5010556 727.58715622 -243.07632996 727.95946869 -243.66903687 728.34306335 C-245.54321716 729.55247646 -247.42761906 730.74484765 -249.3125 731.9375 C-250.63008536 732.78379245 -251.94689017 733.63130127 -253.26293945 734.47998047 C-255.91939915 736.19110449 -258.57955166 737.89622402 -261.24316406 739.59619141 C-266.41632337 742.90078316 -271.5511875 746.26353894 -276.6875 749.625 C-278.54534693 750.83628418 -280.40342155 752.04721921 -282.26171875 753.2578125 C-288.51195165 757.33221488 -294.75610383 761.41589585 -301 765.5 C-310.1645926 771.49410965 -319.33063931 777.48596881 -328.50756836 783.46118164 C-333.36488071 786.6244847 -338.2151463 789.79784357 -343.0546875 792.98828125 C-380.51067323 817.64645238 -380.51067323 817.64645238 -397.56640625 814.53125 C-413.18375805 810.42527957 -425.63314352 798.64715237 -435 786 C-435.49242187 785.35675781 -435.98484375 784.71351563 -436.4921875 784.05078125 C-443.9418298 773.38529957 -445.68856896 761.07936527 -445.63223267 748.45288086 C-445.61967854 744.629221 -445.69660294 740.80721158 -445.76953125 736.984375 C-445.78964516 735.83859985 -445.78964516 735.83859985 -445.81016541 734.66967773 C-446.04681384 723.36379696 -447.34439327 712.17858263 -449 701 C-449.13776855 700.05592285 -449.27553711 699.1118457 -449.41748047 698.13916016 C-451.48187505 684.44041784 -451.48187505 684.44041784 -460 674 C-461.01411026 673.12626286 -462.02703024 672.2511432 -463.0390625 671.375 C-477.80686714 658.91593176 -494.74850616 649.94549118 -514.5859375 650.6171875 C-524.42797424 651.72075684 -532.96205373 655.30011383 -541 661 C-542.04607422 661.73476562 -542.04607422 661.73476562 -543.11328125 662.484375 C-556.69088066 673.13554036 -561.32172354 690.49818589 -563.3125 706.875 C-564.4512003 717.38447253 -564.04037782 727.52697566 -562.6875 738 C-562.56955078 739.00289062 -562.45160156 740.00578125 -562.33007812 741.0390625 C-561.95205696 744.03996901 -561.49413362 747.01617388 -561 750 C-560.88350098 750.84691406 -560.76700195 751.69382812 -560.64697266 752.56640625 C-558.66470271 762.6607644 -551.79938484 770.75983058 -546 779 C-528.86075992 803.3526246 -528.86075992 803.3526246 -531 816 C-534.11900398 827.16443476 -539.92509944 835.71751765 -549 843 C-568.82341977 851.91302189 -592.61787822 854.03266308 -614 857 C-615.76150391 857.24991699 -615.76150391 857.24991699 -617.55859375 857.50488281 C-664.32800444 863.85742088 -749.2529311 869.21767705 -791.03051758 841.66064453 C-798.42781713 835.8608592 -802.05014934 828.03179619 -804 819 C-804.34928344 815.09163877 -804.33237643 811.2331031 -804.25 807.3125 C-804.24226562 805.82266602 -804.24226562 805.82266602 -804.234375 804.30273438 C-804.20490995 801.53117819 -804.11394842 798.76918671 -804 796 C-803.97035156 794.81921875 -803.94070313 793.6384375 -803.91015625 792.421875 C-802.50892005 787.153708 -799.39715225 783.28262722 -796.1875 778.9375 C-794.9306075 777.19689042 -793.67408764 775.45601169 -792.41796875 773.71484375 C-791.85875732 772.95292725 -791.2995459 772.19101074 -790.72338867 771.40600586 C-790.15467041 770.61202393 -789.58595215 769.81804199 -789 769 C-788.34 768.14245117 -787.68 767.28490234 -787 766.40136719 C-784.27559639 761.76801867 -782.99979499 757.02440837 -781.58203125 751.86328125 C-781.27931808 750.7880571 -780.97660492 749.71283295 -780.66471863 748.60502625 C-780.02846938 746.33458509 -779.39758223 744.06263532 -778.77172852 741.78930664 C-777.8193998 738.33750892 -776.84559266 734.89230662 -775.86914062 731.44726562 C-775.251301 729.2321339 -774.63472366 727.01664963 -774.01953125 724.80078125 C-773.58674614 723.2736425 -773.58674614 723.2736425 -773.1452179 721.71565247 C-769.18011727 707.16619433 -768.89554198 694.33935109 -776.2578125 680.8125 C-784.24664659 667.91572748 -799.58253703 657.95429889 -814.01171875 653.359375 C-826.08955942 651.17634682 -836.34998307 655.05191864 -846.29638672 661.76416016 C-875.99675913 683.3094862 -885.23739348 721.55775454 -891 756 C-892.56613868 766.74131681 -893.80925686 777.54709551 -894.34375 788.390625 C-894.40344971 789.3997998 -894.46314941 790.40897461 -894.5246582 791.44873047 C-894.6303048 793.34720132 -894.70370933 795.24784547 -894.73901367 797.14892578 C-894.88428915 799.66879498 -895.06567144 801.65355793 -896 804 C-898.45138043 806.04010289 -900.98000695 807.04747004 -904 808 C-904.69399902 808.2278418 -905.38799805 808.45568359 -906.10302734 808.69042969 C-918.00640317 812.32132367 -929.13821539 808.55746714 -939.85473633 803.06201172 C-943.67701492 801.16979459 -947.6289682 799.5818729 -951.5625 797.9375 C-990.40344127 781.41244499 -1027.31425405 760.09079325 -1059 732 C-1059.95648437 731.154375 -1060.91296875 730.30875 -1061.8984375 729.4375 C-1067.95618677 723.98065347 -1073.78458899 718.31312301 -1079.5625 712.5625 C-1080.25384033 711.87583252 -1080.94518066 711.18916504 -1081.6574707 710.48168945 C-1082.6333313 709.50268677 -1082.6333313 709.50268677 -1083.62890625 708.50390625 C-1084.20713135 707.92455322 -1084.78535645 707.3452002 -1085.38110352 706.74829102 C-1093.35806324 698.13375195 -1093.67066059 686.27601739 -1093.26171875 675.0390625 C-1092.64377164 664.28930502 -1092.64377164 664.28930502 -1090 660 C-1086.65534695 657.53274115 -1082.88230541 656.41058517 -1079 655 C-1075.82400436 653.62584639 -1072.69153038 652.16507203 -1069.5625 650.6875 C-1068.73758057 650.29876709 -1067.91266113 649.91003418 -1067.06274414 649.50952148 C-1056.33534852 644.36024389 -1047.1524157 637.5749796 -1038 630 C-1037.43667969 629.56042969 -1036.87335938 629.12085937 -1036.29296875 628.66796875 C-1013.63925714 610.79604323 -1002.4872676 579.53095481 -999.0324707 551.96118164 C-996.03050974 525.14072319 -999.22973403 497.95380272 -1016 476 C-1031.90088444 456.84526662 -1059.72563776 446.98703005 -1083.82006836 444.1940918 C-1106.63828429 442.16245537 -1125.05065869 446.7303715 -1142.94140625 461.359375 C-1153.91379165 470.67342231 -1163.35475287 483.31379122 -1168.52734375 496.84375 C-1170.93343999 502.00058226 -1175.04504889 503.59539137 -1180 506 C-1180.6909375 506.34289063 -1181.381875 506.68578125 -1182.09375 507.0390625 C-1190.76443501 510.60738287 -1202.15019804 510.3288188 -1210.9375 507.375 C-1220.39859335 503.322263 -1227.51520696 496.91739744 -1235 490 C-1237.02850543 488.22328458 -1239.06778063 486.46021447 -1241.11328125 484.703125 C-1245.38906535 480.84341099 -1249.35596005 476.63701057 -1253.4140625 472.55078125 C-1254.95534199 471.00213672 -1256.49709568 469.45396602 -1258.0390625 467.90600586 C-1259.10082189 466.83917957 -1260.16168758 465.77146312 -1261.22167969 464.70288086 C-1262.76262087 463.14981938 -1264.30676203 461.60000281 -1265.8515625 460.05078125 C-1267.22562256 458.66886597 -1267.22562256 458.66886597 -1268.62744141 457.2590332 C-1270.98090144 454.88848895 -1270.98090144 454.88848895 -1274 453 C-1274 452.34 -1274 451.68 -1274 451 C-1274.53971436 450.78553223 -1275.07942871 450.57106445 -1275.63549805 450.35009766 C-1278.8489613 448.51525493 -1281.25426999 446.01140511 -1283.83203125 443.3984375 C-1284.38686691 442.84314362 -1284.94170258 442.28784973 -1285.51335144 441.71572876 C-1286.68648789 440.53957558 -1287.85719729 439.36099724 -1289.02563477 438.18017578 C-1290.79075734 436.39696546 -1292.56358023 434.62171976 -1294.33789062 432.84765625 C-1299.50115085 427.66771712 -1304.56235627 422.47147639 -1309.3112793 416.90478516 C-1312.84579086 412.91804824 -1316.70433293 409.23570393 -1320.5 405.5 C-1325.67956642 400.40225927 -1330.75395007 395.29953662 -1335.4609375 389.7578125 C-1337.06849689 387.92176752 -1338.75761464 386.20789027 -1340.5 384.5 C-1343.51072823 381.53600148 -1346.29243751 378.43281403 -1349.05078125 375.234375 C-1351.33020694 372.62148624 -1353.66212353 370.06069979 -1356 367.5 C-1360.05715856 363.04687251 -1364.0641875 358.56054465 -1368 354 C-1368.43570313 353.49597656 -1368.87140625 352.99195313 -1369.3203125 352.47265625 C-1375.99773273 344.7418462 -1382.5852531 336.95127757 -1389 329 C-1389.44811035 328.44763672 -1389.8962207 327.89527344 -1390.35791016 327.32617188 C-1418.3450949 292.81337959 -1449.01237543 253.88979316 -1460 210 C-1460.22300781 209.11957031 -1460.44601562 208.23914062 -1460.67578125 207.33203125 C-1463.65695415 193.60241186 -1463.23350525 179.24013614 -1456.3125 166.8125 C-1447.74230414 153.61314725 -1435.15444516 147.28430929 -1420.76513672 142.14355469 C-1388.25894408 130.4340366 -1369.53662782 99.59591728 -1355.5402832 69.84570312 C-1350.46540544 58.76343741 -1346.30460094 47.34392555 -1342.1640625 35.88671875 C-1340.58034206 31.51875998 -1338.89700085 27.2407148 -1337 23 C-1332.09064102 27.1283246 -1327.33946905 31.41149015 -1322.62060547 35.75463867 C-1317.78116119 40.2079811 -1312.89542137 44.60828758 -1308 49 C-1306.33307353 50.49971128 -1304.66640851 51.99971321 -1303 53.5 C-1302.175 54.2425 -1301.35 54.985 -1300.5 55.75 C-1293 62.5 -1293 62.5 -1290.4921875 64.7578125 C-1288.85260121 66.23292618 -1287.21200345 67.70691652 -1285.5703125 69.1796875 C-1280.9796939 73.30097768 -1276.41552893 77.44873788 -1271.875 81.625 C-1268.00632178 85.18253099 -1264.09665875 88.68289575 -1260.125 92.125 C-1256.84491419 95.01919336 -1253.63731943 97.99218892 -1250.41967773 100.95532227 C-1247.66526572 103.48740116 -1244.89257501 105.99035268 -1242.0625 108.4375 C-1237.87967989 112.06144644 -1233.83728193 115.83255746 -1229.77978516 119.59521484 C-1226.26787256 122.84615512 -1222.70998582 126.02984313 -1219.08984375 129.16015625 C-1215.81885511 132.03984905 -1212.62496909 135.00354253 -1209.41943359 137.95556641 C-1206.66508903 140.48754824 -1203.8924879 142.99042801 -1201.0625 145.4375 C-1196.87967989 149.06144644 -1192.83728193 152.83255746 -1188.77978516 156.59521484 C-1185.26787256 159.84615512 -1181.70998582 163.02984313 -1178.08984375 166.16015625 C-1174.81885511 169.03984905 -1171.62496909 172.00354253 -1168.41943359 174.95556641 C-1165.66508903 177.48754824 -1162.8924879 179.99042801 -1160.0625 182.4375 C-1155.87967989 186.06144644 -1151.83728193 189.83255746 -1147.77978516 193.59521484 C-1144.26517971 196.84864787 -1140.70391333 200.03408762 -1137.08203125 203.16796875 C-1133.86508207 205.99864261 -1130.7202932 208.90767016 -1127.56665039 211.80834961 C-1122.74396118 216.24236939 -1117.87650331 220.62525909 -1113 225 C-1111.33307353 226.49971128 -1109.66640851 227.99971321 -1108 229.5 C-1106.7625 230.61375 -1106.7625 230.61375 -1105.5 231.75 C-1098 238.5 -1098 238.5 -1095.4921875 240.7578125 C-1093.85260121 242.23292618 -1092.21200345 243.70691652 -1090.5703125 245.1796875 C-1085.9796939 249.30097768 -1081.41552893 253.44873788 -1076.875 257.625 C-1073.00632178 261.18253099 -1069.09665875 264.68289575 -1065.125 268.125 C-1061.84491419 271.01919336 -1058.63731943 273.99218892 -1055.41967773 276.95532227 C-1052.66526572 279.48740116 -1049.89257501 281.99035268 -1047.0625 284.4375 C-1042.87967989 288.06144644 -1038.83728193 291.83255746 -1034.77978516 295.59521484 C-1031.26787256 298.84615512 -1027.70998582 302.02984313 -1024.08984375 305.16015625 C-1020.81885511 308.03984905 -1017.62496909 311.00354253 -1014.41943359 313.95556641 C-1011.66508903 316.48754824 -1008.8924879 318.99042801 -1006.0625 321.4375 C-1001.87967989 325.06144644 -997.83728193 328.83255746 -993.77978516 332.59521484 C-990.26787256 335.84615512 -986.70998582 339.02984313 -983.08984375 342.16015625 C-979.81885511 345.03984905 -976.62496909 348.00354253 -973.41943359 350.95556641 C-970.66508903 353.48754824 -967.8924879 355.99042801 -965.0625 358.4375 C-960.87967989 362.06144644 -956.83728193 365.83255746 -952.77978516 369.59521484 C-949.26517971 372.84864787 -945.70391333 376.03408762 -942.08203125 379.16796875 C-938.86508207 381.99864261 -935.7202932 384.90767016 -932.56665039 387.80834961 C-928.54900575 391.50220485 -924.5035916 395.16371155 -920.44140625 398.80859375 C-918.75906498 400.31866328 -917.07954003 401.83187435 -915.40234375 403.34765625 C-913.71384538 404.87316232 -912.02131736 406.39422358 -910.32421875 407.91015625 C-908.85236592 409.23358694 -907.39459433 410.5729939 -905.95703125 411.93359375 C-903.97520808 413.81730433 -903.97520808 413.81730433 -901 416 C-897.49069627 415.70333721 -895.04593991 413.88741028 -892.1875 411.9375 C-890.60195312 410.85855469 -890.60195312 410.85855469 -888.984375 409.7578125 C-882.94686947 405.58845659 -876.92517254 401.39614466 -870.90698242 397.19897461 C-864.79207688 392.93501434 -858.65949077 388.69926332 -852.5 384.5 C-845.47160711 379.7069964 -838.47886193 374.86482501 -831.5 370 C-822.08515331 363.43785264 -812.62977079 356.93791321 -803.15087891 350.46875 C-792.29205649 343.05369033 -781.48889626 335.56034677 -770.70019531 328.04370117 C-763.89209631 323.30478517 -757.05688561 318.60769424 -750.20385742 313.93408203 C-743.94370713 309.65914556 -737.71871401 305.3349411 -731.5 301 C-722.08515331 294.43785264 -712.62977079 287.93791321 -703.15087891 281.46875 C-691.20347285 273.31033969 -679.31816273 265.06332107 -667.4453125 256.796875 C-666.54200195 256.17232422 -665.63869141 255.54777344 -664.70800781 254.90429688 C-662.85982759 253.60463895 -661.03156213 252.2763097 -659.22167969 250.92382812 C-658.34157227 250.27349609 -657.46146484 249.62316406 -656.5546875 248.953125 C-655.77335449 248.36176758 -654.99202148 247.77041016 -654.18701172 247.16113281 C-652 246 -652 246 -649.9375 246.18969727 C-647.98482753 247.00634544 -646.24597106 247.89908689 -644.4453125 249.01171875 C-643.41676147 249.64291626 -643.41676147 249.64291626 -642.36743164 250.28686523 C-641.6274292 250.74907471 -640.88742676 251.21128418 -640.125 251.6875 C-638.94828735 252.4146521 -638.94828735 252.4146521 -637.74780273 253.15649414 C-629.60485494 258.20647694 -621.52763398 263.36111053 -613.453125 268.51953125 C-608.41627006 271.73732443 -603.36753401 274.9358582 -598.3125 278.125 C-597.54043213 278.61218506 -596.76836426 279.09937012 -595.97290039 279.60131836 C-594.42422235 280.57839666 -592.87547591 281.55536657 -591.32666016 282.53222656 C-587.38339755 285.01983357 -583.44179232 287.51006414 -579.5 290 C-577.9166744 291.00001224 -576.33334107 292.00001225 -574.75 293 C-565.25 299 -565.25 299 -562.8762207 300.49926758 C-561.28886474 301.50178243 -559.70146221 302.50422354 -558.11401367 303.5065918 C-554.21684605 305.96751963 -550.32042899 308.42961712 -546.42578125 310.89453125 C-537.69729987 316.41653701 -528.9507473 321.90831604 -520.1875 327.375 C-510.50475893 333.41686985 -500.86486553 339.52319989 -491.2421875 345.66015625 C-483.94517568 350.31310913 -476.62472045 354.92879846 -469.3046875 359.54541016 C-467.01454836 360.99081789 -464.72580343 362.43840684 -462.4375 363.88671875 C-452.69534427 370.05075618 -442.92704539 376.17150535 -433.14526367 382.27246094 C-425.22578792 387.21840606 -417.34175221 392.21826749 -409.48120117 397.25732422 C-407.81978993 398.31971889 -406.15462167 399.37626617 -404.48535156 400.42626953 C-402.73969811 401.53162141 -401.00834862 402.65973206 -399.28808594 403.80419922 C-398.40668945 404.37283691 -397.52529297 404.94147461 -396.6171875 405.52734375 C-395.82683105 406.0493335 -395.03647461 406.57132324 -394.22216797 407.10913086 C-392.04390749 408.25251573 -392.04390749 408.25251573 -389.91455078 407.35913086 C-387.93292266 405.9523821 -386.38541945 404.52324145 -384.75 402.7265625 C-384.14736328 402.07236328 -383.54472656 401.41816406 -382.92382812 400.74414062 C-382.28896484 400.04482422 -381.65410156 399.34550781 -381 398.625 C-376.26158667 393.47977655 -371.48536623 388.40680603 -366.5 383.5 C-363.44683896 380.48735672 -360.45945147 377.46471857 -357.6875 374.1875 C-354.18553184 370.06295972 -350.34134803 366.30429174 -346.5 362.5 C-340.8249973 356.91455591 -340.8249973 356.91455591 -335.5 351 C-331.4619844 346.20485648 -326.91874941 341.8954922 -322.46875 337.48828125 C-319.36994552 334.40792204 -316.31670228 331.34483396 -313.5 328 C-309.4619844 323.20485648 -304.91874941 318.8954922 -300.46875 314.48828125 C-297.36994552 311.40792204 -294.31670228 308.34483396 -291.5 305 C-287.50285581 300.25339127 -283.01876691 295.96978373 -278.59179688 291.62890625 C-275.44497522 288.52474224 -272.41664009 285.38118135 -269.53125 282.03125 C-265.26860087 277.08772778 -260.61799832 272.5678451 -255.9609375 268 C-252.04013229 264.12460953 -248.34324905 260.14503915 -244.74609375 255.96875 C-241.22909547 252.00327543 -237.39038303 248.35140606 -233.60546875 244.64453125 C-230.45556225 241.53375402 -227.4211404 238.38640621 -224.53125 235.03125 C-220.26860087 230.08772778 -215.61799832 225.5678451 -210.9609375 221 C-207.68299366 217.76002463 -204.50864439 214.49302931 -201.5 211 C-197.24967188 206.06537869 -192.60741662 201.55746611 -187.9609375 197 C-184.68299366 193.76002463 -181.50864439 190.49302931 -178.5 187 C-174.24967188 182.06537869 -169.60741662 177.55746611 -164.9609375 173 C-161.68299366 169.76002463 -158.50864439 166.49302931 -155.5 163 C-151.24967188 158.06537869 -146.60741662 153.55746611 -141.9609375 149 C-138.69334698 145.77025802 -135.52847667 142.51488375 -132.53125 139.03125 C-128.07439395 133.85685023 -123.1855361 129.13749431 -118.31640625 124.35546875 C-114.27160928 120.35455746 -110.43845344 116.26317959 -106.72851562 111.95117188 C-103.80358733 108.64947316 -100.64814478 105.58692191 -97.5 102.5 C-91.82399606 96.91548793 -91.82399606 96.91548793 -86.5 91 C-82.4619844 86.20485648 -77.91874941 81.8954922 -73.46875 77.48828125 C-70.36994552 74.40792204 -67.31670228 71.34483396 -64.5 68 C-60.50285581 63.25339127 -56.01876691 58.96978373 -51.59179688 54.62890625 C-48.44497522 51.52474224 -45.41664009 48.38118135 -42.53125 45.03125 C-38.26860087 40.08772778 -33.61799832 35.5678451 -28.9609375 31 C-25.03713963 27.12165152 -21.336355 23.13935127 -17.73681641 18.95947266 C-14.8669228 15.72166466 -11.77866445 12.7122592 -8.6875 9.6875 C-7.45990461 8.4854529 -6.23454735 7.28111473 -5.01171875 6.07421875 C-4.48022217 5.55432373 -3.94872559 5.03442871 -3.40112305 4.4987793 C-1.77930377 2.84554114 -1.77930377 2.84554114 0 0 Z M-654 328 C-655.34578125 329.43666016 -655.34578125 329.43666016 -656.71875 330.90234375 C-664.7781579 339.50378098 -672.847667 348.09558773 -680.9296875 356.67578125 C-683.72998519 359.6491463 -686.52636416 362.62613697 -689.3203125 365.60546875 C-690.0306665 366.362229 -690.74102051 367.11898926 -691.47290039 367.89868164 C-692.81934294 369.33321951 -694.16494862 370.76854354 -695.50952148 372.20483398 C-698.54447786 375.43638673 -701.60779736 378.62626859 -704.75390625 381.75 C-707.06763577 384.04781309 -709.27618262 386.37640788 -711.375 388.875 C-713.96634205 391.8846753 -716.67254783 394.71088616 -719.5 397.5 C-722.28621141 400.2485599 -724.95308392 403.02859791 -727.5 406 C-730.75164628 409.79358733 -734.25713094 413.27392647 -737.8125 416.78125 C-739.79720342 418.79430632 -741.66096916 420.85446403 -743.5 423 C-746.74924673 426.79078785 -750.25186032 430.26878424 -753.8046875 433.7734375 C-756.43034345 436.43646934 -758.85979205 439.23255606 -761.29296875 442.0703125 C-764.05221581 445.18946136 -767.01587975 448.09751222 -770 451 C-766.01644165 456.79721094 -761.45283981 461.65938494 -756.43359375 466.57421875 C-753.80146696 469.19789569 -751.37781452 471.9342164 -748.9609375 474.75390625 C-746.44426438 477.63654977 -743.85048243 480.44302561 -741.25 483.25 C-740.74194824 483.79849609 -740.23389648 484.34699219 -739.71044922 484.91210938 C-738.66899586 486.0363424 -737.62749144 487.16052813 -736.5859375 488.28466797 C-733.96518923 491.1192396 -731.35728249 493.96554611 -728.75 496.8125 C-728.27208008 497.33424805 -727.79416016 497.85599609 -727.30175781 498.39355469 C-726.20097427 499.59552219 -725.10045478 500.79773149 -724 502 C-716.40891163 499.69870163 -709.48517955 496.49597902 -702.375 493 C-700.19595861 491.93617555 -698.01628788 490.87363905 -695.8359375 489.8125 C-694.82031738 489.31242432 -693.80469727 488.81234863 -692.75830078 488.29711914 C-690.52445902 487.24663222 -688.3370945 486.37975351 -686.015625 485.55859375 C-682.08586247 483.52753773 -680.45934332 480.80417941 -678.375 477.0625 C-677.52581108 475.62359656 -676.67412116 474.18616702 -675.8203125 472.75 C-675.37075195 471.98429687 -674.92119141 471.21859375 -674.45800781 470.4296875 C-671.8391374 466.06548818 -669.03741577 461.8202317 -666.25 457.5625 C-665.71938965 456.74724854 -665.1887793 455.93199707 -664.64208984 455.09204102 C-661.13147004 449.70335469 -657.5774154 444.34454352 -654 439 C-650.62049938 442.22271966 -647.89604458 445.38655612 -645.375 449.3125 C-644.69179688 450.36050781 -644.00859375 451.40851562 -643.3046875 452.48828125 C-642.93698242 453.05240723 -642.56927734 453.6165332 -642.19042969 454.19775391 C-639.59333037 458.12962165 -636.89156294 461.99104609 -634.20849609 465.86450195 C-633.56388428 466.79782349 -633.56388428 466.79782349 -632.90625 467.75 C-632.43791748 468.40709961 -631.96958496 469.06419922 -631.48706055 469.74121094 C-630 472 -630 472 -628.55395508 474.82910156 C-622.6138856 485.5855595 -613.55028151 488.99759591 -602.6875 493.75 C-600.91723802 494.559485 -599.14834229 495.37196486 -597.38085938 496.1875 C-589.47186699 500.26892662 -589.47186699 500.26892662 -581 502 C-579.56692922 500.74597206 -579.56692922 500.74597206 -578.1875 498.9375 C-574.63751352 494.6940979 -570.91401295 490.65349909 -567.125 486.625 C-562.45783643 481.64730348 -557.83676271 476.63754198 -553.296875 471.54296875 C-551.51280211 469.5677452 -549.71178157 467.61640304 -547.890625 465.67578125 C-547.35002441 465.09779785 -546.80942383 464.51981445 -546.25244141 463.92431641 C-545.1959324 462.79680289 -544.13590398 461.67257306 -543.07177734 460.55224609 C-540.2671144 457.55383693 -537.96179313 454.60996628 -536 451 C-544.11070407 442.31400358 -552.24540653 433.68565014 -560.69921875 425.33203125 C-562.68337191 423.32092864 -564.54529275 421.2752399 -566.375 419.125 C-569.56129433 415.38456753 -573.00880254 411.95196502 -576.5 408.5 C-579.92845382 405.10994409 -583.32260763 401.74805967 -586.4375 398.0625 C-589.74572658 394.15730021 -593.36513741 390.59719074 -597 387 C-601.18844516 382.8549191 -605.2267072 378.69083638 -609.03125 374.1875 C-612.48766973 370.34703363 -616.21302595 366.76845378 -619.88452148 363.13500977 C-623.45698233 359.58542182 -626.84604401 355.96842121 -630.09765625 352.12109375 C-633.31703021 348.53152484 -636.78809835 345.19025356 -640.21826172 341.8034668 C-643.90755442 338.14372712 -647.40957624 334.39251066 -650.73046875 330.390625 C-651.97057156 328.8651137 -651.97057156 328.8651137 -654 328 Z " fill="#FE0808" transform="translate(1654,1644)"/>
<path d="M0 0 C0.66 0.33 1.32 0.66 2 1 C-3.31529348 7.12195048 -8.8662562 12.9229856 -14.625 18.625 C-18.92717333 22.88524692 -23.09829448 27.1479747 -27 31.78125 C-30.6726967 35.8556479 -34.63481587 39.65275034 -38.53125 43.51171875 C-41.63005448 46.59207796 -44.68329772 49.65516604 -47.5 53 C-51.5380156 57.79514352 -56.08125059 62.1045078 -60.53125 66.51171875 C-63.63005448 69.59207796 -66.68329772 72.65516604 -69.5 76 C-73.5380156 80.79514352 -78.08125059 85.1045078 -82.53125 89.51171875 C-85.63005448 92.59207796 -88.68329772 95.65516604 -91.5 99 C-95.5380156 103.79514352 -100.08125059 108.1045078 -104.53125 112.51171875 C-107.63005448 115.59207796 -110.68329772 118.65516604 -113.5 122 C-117.5380156 126.79514352 -122.08125059 131.1045078 -126.53125 135.51171875 C-129.63005448 138.59207796 -132.68329772 141.65516604 -135.5 145 C-139.49714419 149.74660873 -143.98123309 154.03021627 -148.40820312 158.37109375 C-151.55502478 161.47525776 -154.58335991 164.61881865 -157.46875 167.96875 C-161.73139913 172.91227222 -166.38200168 177.4321549 -171.0390625 182 C-174.95986771 185.87539047 -178.65675095 189.85496085 -182.25390625 194.03125 C-185.18628435 197.33755551 -188.34584132 200.40718115 -191.5 203.5 C-197.17600394 209.08451207 -197.17600394 209.08451207 -202.5 215 C-206.5380156 219.79514352 -211.08125059 224.1045078 -215.53125 228.51171875 C-218.63005448 231.59207796 -221.68329772 234.65516604 -224.5 238 C-228.5380156 242.79514352 -233.08125059 247.1045078 -237.53125 251.51171875 C-240.63005448 254.59207796 -243.68329772 257.65516604 -246.5 261 C-250.5380156 265.79514352 -255.08125059 270.1045078 -259.53125 274.51171875 C-262.63005448 277.59207796 -265.68329772 280.65516604 -268.5 284 C-272.49714419 288.74660873 -276.98123309 293.03021627 -281.40820312 297.37109375 C-284.55502478 300.47525776 -287.58335991 303.61881865 -290.46875 306.96875 C-294.73139913 311.91227222 -299.38200168 316.4321549 -304.0390625 321 C-307.95986771 324.87539047 -311.65675095 328.85496085 -315.25390625 333.03125 C-318.18626419 336.33753278 -321.34561444 339.40744137 -324.5 342.5 C-329.08196915 347.0275954 -333.50764832 351.58520752 -337.6640625 356.51171875 C-339.55380812 358.61696168 -341.7937432 360.23499456 -344 362 C-344.99772055 363.10857839 -345.97422379 364.23636428 -346.9375 365.375 C-350.95320891 370.08794188 -355.33997439 374.39638241 -359.76147461 378.72412109 C-362.78084196 381.69981553 -365.67024122 384.72471883 -368.4375 387.9375 C-372.71244008 392.88994174 -377.37142343 397.42177931 -382.0390625 402 C-385.95986771 405.87539047 -389.65675095 409.85496085 -393.25390625 414.03125 C-396.18628435 417.33755551 -399.34584132 420.40718115 -402.5 423.5 C-408.17600394 429.08451207 -408.17600394 429.08451207 -413.5 435 C-417.5380156 439.79514352 -422.08125059 444.1045078 -426.53125 448.51171875 C-429.63005448 451.59207796 -432.68329772 454.65516604 -435.5 458 C-439.49714419 462.74660873 -443.98123309 467.03021627 -448.40820312 471.37109375 C-451.54468075 474.46505395 -454.56343456 477.5970148 -457.4375 480.9375 C-461.90682643 486.12071209 -466.80386104 490.85209251 -471.68359375 495.64453125 C-475.7182249 499.63538702 -479.53971738 503.71652009 -483.24023438 508.01757812 C-486.96391909 512.21240607 -491.03655539 516.07416927 -495.0390625 520 C-498.31700634 523.23997537 -501.49135561 526.50697069 -504.5 530 C-508.75032812 534.93462131 -513.39258338 539.44253389 -518.0390625 544 C-521.31700634 547.23997537 -524.49135561 550.50697069 -527.5 554 C-531.75032812 558.93462131 -536.39258338 563.44253389 -541.0390625 568 C-544.31700634 571.23997537 -547.49135561 574.50697069 -550.5 578 C-554.75032812 582.93462131 -559.39258338 587.44253389 -564.0390625 592 C-567.95986771 595.87539047 -571.65675095 599.85496085 -575.25390625 604.03125 C-578.77090453 607.99672457 -582.60961697 611.64859394 -586.39453125 615.35546875 C-589.54443775 618.46624598 -592.5788596 621.61359379 -595.46875 624.96875 C-599.73139913 629.91227222 -604.38200168 634.4321549 -609.0390625 639 C-612.95986771 642.87539047 -616.65675095 646.85496085 -620.25390625 651.03125 C-623.18628435 654.33755551 -626.34584132 657.40718115 -629.5 660.5 C-635.17600394 666.08451207 -635.17600394 666.08451207 -640.5 672 C-644.5380156 676.79514352 -649.08125059 681.1045078 -653.53125 685.51171875 C-656.63005448 688.59207796 -659.68329772 691.65516604 -662.5 695 C-666.5380156 699.79514352 -671.08125059 704.1045078 -675.53125 708.51171875 C-678.63005448 711.59207796 -681.68329772 714.65516604 -684.5 718 C-688.5380156 722.79514352 -693.08125059 727.1045078 -697.53125 731.51171875 C-700.63005448 734.59207796 -703.68329772 737.65516604 -706.5 741 C-710.52982732 745.78541995 -715.06091893 750.08999446 -719.50708008 754.4831543 C-723.41414072 758.35988593 -727.15957043 762.28177797 -730.60546875 766.58203125 C-732.30807313 768.31325083 -733.72523861 769.14342033 -736 770 C-738.8338829 768.62977091 -741.26249842 767.22044173 -743.875 765.5 C-744.66310059 764.99952148 -745.45120117 764.49904297 -746.26318359 763.98339844 C-747.96703487 762.89891788 -749.66626051 761.8071433 -751.36132812 760.70898438 C-753.97656108 759.01518065 -756.60310066 757.34063114 -759.234375 755.671875 C-762.90250961 753.34485812 -766.56591005 751.01064275 -770.2265625 748.671875 C-776.12733329 744.9097061 -782.06092791 741.20131372 -788 737.5 C-797.6213844 731.50147777 -807.19833591 725.43641787 -816.7578125 719.33984375 C-824.05482432 714.68689087 -831.37527955 710.07120154 -838.6953125 705.45458984 C-840.98545164 704.00918211 -843.27419657 702.56159316 -845.5625 701.11328125 C-854.29465086 695.5882921 -863.04526901 690.09416907 -871.8125 684.625 C-881.49524107 678.58313015 -891.13513447 672.47680011 -900.7578125 666.33984375 C-908.04761989 661.69148478 -915.36063971 657.07999678 -922.67333984 652.46777344 C-925.82204139 650.48141523 -928.96965243 648.49333286 -932.1171875 646.50512695 C-933.70695385 645.5009354 -935.29679773 644.49686657 -936.88671875 643.49291992 C-940.78365741 641.03217884 -944.67981885 638.57022602 -948.57421875 636.10546875 C-958.66108853 629.72422006 -968.77195096 623.38262645 -978.9050293 617.07495117 C-979.87093994 616.47271729 -980.83685059 615.8704834 -981.83203125 615.25 C-982.73775879 614.68796875 -983.64348633 614.1259375 -984.57666016 613.546875 C-986.59360505 612.25941149 -988.51875938 610.91055774 -990.44921875 609.5 C-992.79029843 607.77047267 -992.79029843 607.77047267 -994.92578125 608.25756836 C-997.15057728 609.0538966 -998.80000058 610.02983508 -1000.73828125 611.37890625 C-1001.46402344 611.87970703 -1002.18976562 612.38050781 -1002.9375 612.89648438 C-1003.72125 613.44626953 -1004.505 613.99605469 -1005.3125 614.5625 C-1006.14136719 615.13677734 -1006.97023438 615.71105469 -1007.82421875 616.30273438 C-1010.55363824 618.19591481 -1013.27697986 620.09762904 -1016 622 C-1017.89943916 623.32204632 -1019.79918213 624.64365625 -1021.69921875 625.96484375 C-1024.61126183 627.99014242 -1027.52292291 630.01597391 -1030.43310547 632.04394531 C-1038.87173379 637.92228616 -1047.35469924 643.73396884 -1055.84912109 649.53125 C-1066.70794351 656.94630967 -1077.51110374 664.43965323 -1088.29980469 671.95629883 C-1095.10790369 676.69521483 -1101.94311439 681.39230576 -1108.79614258 686.06591797 C-1115.05629287 690.34085444 -1121.28128599 694.6650589 -1127.5 699 C-1136.91484669 705.56214736 -1146.37022921 712.06208679 -1155.84912109 718.53125 C-1166.70794351 725.94630967 -1177.51110374 733.43965323 -1188.29980469 740.95629883 C-1195.09622916 745.68708854 -1201.91943437 750.37654984 -1208.76098633 755.04174805 C-1216.38229619 760.245776 -1223.95524659 765.51878878 -1231.52539062 770.796875 C-1232.45544922 771.44527344 -1233.38550781 772.09367187 -1234.34375 772.76171875 C-1235.58415039 773.6273645 -1235.58415039 773.6273645 -1236.84960938 774.51049805 C-1241.90282071 778.01068451 -1241.90282071 778.01068451 -1244.00292969 777.77978516 C-1247.35866475 776.46948958 -1249.69846811 773.84067904 -1252.25 771.375 C-1253.41985684 770.2687735 -1254.59042638 769.16330018 -1255.76171875 768.05859375 C-1256.60355713 767.25977783 -1256.60355713 767.25977783 -1257.46240234 766.44482422 C-1259.28946547 764.7279999 -1261.16271815 763.07331217 -1263.0625 761.4375 C-1266.9223909 758.09767861 -1270.67702348 754.64667009 -1274.43334961 751.19165039 C-1279.25603882 746.75763061 -1284.12349669 742.37474091 -1289 738 C-1291.50312417 735.74797293 -1294.00546614 733.49507877 -1296.5078125 731.2421875 C-1298.14739879 729.76707382 -1299.78799655 728.29308348 -1301.4296875 726.8203125 C-1306.0203061 722.69902232 -1310.58447107 718.55126212 -1315.125 714.375 C-1318.99367822 710.81746901 -1322.90334125 707.31710425 -1326.875 703.875 C-1330.15508581 700.98080664 -1333.36268057 698.00781108 -1336.58032227 695.04467773 C-1339.33473428 692.51259884 -1342.10742499 690.00964732 -1344.9375 687.5625 C-1349.12032011 683.93855356 -1353.16271807 680.16744254 -1357.22021484 676.40478516 C-1360.73212744 673.15384488 -1364.29001418 669.97015687 -1367.91015625 666.83984375 C-1371.18114489 663.96015095 -1374.37503091 660.99645747 -1377.58056641 658.04443359 C-1380.33491097 655.51245176 -1383.1075121 653.00957199 -1385.9375 650.5625 C-1390.12032011 646.93855356 -1394.16271807 643.16744254 -1398.22021484 639.40478516 C-1401.73212744 636.15384488 -1405.29001418 632.97015687 -1408.91015625 629.83984375 C-1412.18114489 626.96015095 -1415.37503091 623.99645747 -1418.58056641 621.04443359 C-1421.33491097 618.51245176 -1424.1075121 616.00957199 -1426.9375 613.5625 C-1431.12032011 609.93855356 -1435.16271807 606.16744254 -1439.22021484 602.40478516 C-1442.73212744 599.15384488 -1446.29001418 595.97015687 -1449.91015625 592.83984375 C-1453.18114489 589.96015095 -1456.37503091 586.99645747 -1459.58056641 584.04443359 C-1462.33491097 581.51245176 -1465.1075121 579.00957199 -1467.9375 576.5625 C-1472.12032011 572.93855356 -1476.16271807 569.16744254 -1480.22021484 565.40478516 C-1483.73482029 562.15135213 -1487.29608667 558.96591238 -1490.91796875 555.83203125 C-1494.13491793 553.00135739 -1497.2797068 550.09232984 -1500.43334961 547.19165039 C-1505.25603882 542.75763061 -1510.12349669 538.37474091 -1515 534 C-1516.66692647 532.50028872 -1518.33359149 531.00028679 -1520 529.5 C-1520.825 528.7575 -1521.65 528.015 -1522.5 527.25 C-1530 520.5 -1530 520.5 -1532.5078125 518.2421875 C-1534.14739879 516.76707382 -1535.78799655 515.29308348 -1537.4296875 513.8203125 C-1542.0203061 509.69902232 -1546.58447107 505.55126212 -1551.125 501.375 C-1554.99367822 497.81746901 -1558.90334125 494.31710425 -1562.875 490.875 C-1566.15508581 487.98080664 -1569.36268057 485.00781108 -1572.58032227 482.04467773 C-1575.33473428 479.51259884 -1578.10742499 477.00964732 -1580.9375 474.5625 C-1585.12032011 470.93855356 -1589.16271807 467.16744254 -1593.22021484 463.40478516 C-1596.73212744 460.15384488 -1600.29001418 456.97015687 -1603.91015625 453.83984375 C-1607.18114489 450.96015095 -1610.37503091 447.99645747 -1613.58056641 445.04443359 C-1616.33491097 442.51245176 -1619.1075121 440.00957199 -1621.9375 437.5625 C-1626.12032011 433.93855356 -1630.16271807 430.16744254 -1634.22021484 426.40478516 C-1637.73212744 423.15384488 -1641.29001418 419.97015687 -1644.91015625 416.83984375 C-1648.18114489 413.96015095 -1651.37503091 410.99645747 -1654.58056641 408.04443359 C-1657.94287284 404.95357164 -1661.35361999 401.93144848 -1664.80859375 398.9453125 C-1666.59630226 397.3583627 -1668.35163107 395.74933007 -1670.09765625 394.1171875 C-1670.65783447 393.59439209 -1671.2180127 393.07159668 -1671.79516602 392.53295898 C-1672.8939463 391.50467184 -1673.98972936 390.47316794 -1675.08178711 389.43774414 C-1677.90693912 386.79483174 -1680.7811953 384.37688628 -1683.90625 382.09375 C-1688.25146384 378.89565182 -1692.11212827 375.29470499 -1696 371.5625 C-1700.62521586 367.14957433 -1705.29527121 362.82534461 -1710.125 358.63647461 C-1712.79580665 356.30543073 -1715.39617085 353.90571171 -1718 351.5 C-1721.29952777 348.46031004 -1724.60951607 345.43841941 -1728 342.5 C-1731.87817013 339.13677362 -1735.65527811 335.66664329 -1739.43310547 332.19189453 C-1744.25584891 327.75776372 -1749.1234112 323.3748176 -1754 319 C-1755.66692647 317.50028872 -1757.33359149 316.00028679 -1759 314.5 C-1759.825 313.7575 -1760.65 313.015 -1761.5 312.25 C-1769 305.5 -1769 305.5 -1771.5078125 303.2421875 C-1773.14739879 301.76707382 -1774.78799655 300.29308348 -1776.4296875 298.8203125 C-1781.0203061 294.69902232 -1785.58447107 290.55126212 -1790.125 286.375 C-1793.99367822 282.81746901 -1797.90334125 279.31710425 -1801.875 275.875 C-1805.15508581 272.98080664 -1808.36268057 270.00781108 -1811.58032227 267.04467773 C-1814.33473428 264.51259884 -1817.10742499 262.00964732 -1819.9375 259.5625 C-1824.12032011 255.93855356 -1828.16271807 252.16744254 -1832.22021484 248.40478516 C-1835.73482029 245.15135213 -1839.29608667 241.96591238 -1842.91796875 238.83203125 C-1846.13491793 236.00135739 -1849.2797068 233.09232984 -1852.43334961 230.19165039 C-1857.25603882 225.75763061 -1862.12349669 221.37474091 -1867 217 C-1868.66692647 215.50028872 -1870.33359149 214.00028679 -1872 212.5 C-1873.2375 211.38625 -1873.2375 211.38625 -1874.5 210.25 C-1882 203.5 -1882 203.5 -1884.5078125 201.2421875 C-1886.14739879 199.76707382 -1887.78799655 198.29308348 -1889.4296875 196.8203125 C-1894.0203061 192.69902232 -1898.58447107 188.55126212 -1903.125 184.375 C-1906.99367822 180.81746901 -1910.90334125 177.31710425 -1914.875 173.875 C-1918.15508581 170.98080664 -1921.36268057 168.00781108 -1924.58032227 165.04467773 C-1927.33473428 162.51259884 -1930.10742499 160.00964732 -1932.9375 157.5625 C-1937.12032011 153.93855356 -1941.16271807 150.16744254 -1945.22021484 146.40478516 C-1948.73212744 143.15384488 -1952.29001418 139.97015687 -1955.91015625 136.83984375 C-1959.18114489 133.96015095 -1962.37503091 130.99645747 -1965.58056641 128.04443359 C-1968.33491097 125.51245176 -1971.1075121 123.00957199 -1973.9375 120.5625 C-1977.5523786 117.43162188 -1981.05730343 114.18977996 -1984.5625 110.9375 C-1988.96123843 106.85620281 -1993.39786649 102.85294899 -1998 99 C-1994.29835284 97.76611761 -1993.2598536 98.37952704 -1989.65380859 99.7121582 C-1987.99654503 100.3168972 -1987.99654503 100.3168972 -1986.30580139 100.93385315 C-1985.09887131 101.38493942 -1983.89194122 101.8360257 -1982.6484375 102.30078125 C-1981.37537325 102.76915408 -1980.10200507 103.23670156 -1978.82835388 103.70347595 C-1975.3901111 104.96608939 -1971.95612781 106.23993608 -1968.52276993 107.51576233 C-1964.92351826 108.8509423 -1961.32036323 110.17550039 -1957.7175293 111.50097656 C-1951.88542859 113.64792805 -1946.05541111 115.8004355 -1940.22705078 117.95751953 C-1933.07058959 120.60591236 -1925.90987201 123.24254882 -1918.74609375 125.87109375 C-1917.73822815 126.24091873 -1916.73036255 126.61074371 -1915.69195557 126.99177551 C-1913.70938699 127.71920067 -1911.72680264 128.44658283 -1909.74420166 129.17391968 C-1906.79114203 130.25783944 -1903.83859678 131.34314839 -1900.88623047 132.42895508 C-1887.3578227 137.40426421 -1873.82173847 142.35828655 -1860.28167725 147.30178833 C-1850.52038382 150.86584866 -1840.7600988 154.43266974 -1831 158 C-1829.88091248 158.40897522 -1828.76182495 158.81795044 -1827.60882568 159.23931885 C-1820.86648687 161.70367704 -1814.12512924 164.17069133 -1807.38500977 166.64111328 C-1805.28894477 167.40899294 -1803.19260029 168.17611019 -1801.09594727 168.94238281 C-1790.70503412 172.74057484 -1780.35484543 176.59609433 -1770.10083008 180.75073242 C-1766.17824768 182.33106894 -1762.22570546 183.80979443 -1758.25 185.25 C-1756.62618103 185.84341886 -1755.00249089 186.43719032 -1753.37890625 187.03125 C-1752.51797363 187.34578125 -1751.65704102 187.6603125 -1750.77001953 187.984375 C-1745.57017043 189.89089468 -1740.37979341 191.82302132 -1735.1875 193.75 C-1721.73666376 198.7363403 -1708.26899172 203.67640388 -1694.79833984 208.60888672 C-1688.53144482 210.90379186 -1682.26582104 213.2021645 -1676 215.5 C-1673.50000526 216.41668102 -1671.00000526 217.33334768 -1668.5 218.25 C-1496 281.5 -1496 281.5 -1323.5 344.75 C-1321.64266235 345.43098755 -1321.64266235 345.43098755 -1319.74780273 346.12573242 C-1317.25506378 347.03978542 -1314.76238769 347.95400988 -1312.26977539 348.8684082 C-1306.56239844 350.9618966 -1300.85453636 353.05398934 -1295.14421082 355.13941956 C-1291.90831438 356.32122149 -1288.67279371 357.50404913 -1285.4375 358.6875 C-1284.49410263 359.03257095 -1284.49410263 359.03257095 -1283.53164673 359.38461304 C-1275.56072321 362.30239644 -1267.61161436 365.26998224 -1259.6875 368.3125 C-1253.17509742 370.81289674 -1246.64152655 373.21713286 -1240.05419922 375.51220703 C-1232.946862 377.99741517 -1225.87976788 380.59093029 -1218.8125 383.1875 C-1218.16786804 383.42429474 -1217.52323608 383.66108948 -1216.85906982 383.90505981 C-1213.542859 385.12341376 -1210.22692092 386.34250786 -1206.91113281 387.56201172 C-1200.83805906 389.79534891 -1194.76277977 392.02267219 -1188.6875 394.25 C-1187.4612793 394.69956055 -1186.23505859 395.14912109 -1184.97167969 395.61230469 C-1181.68420424 396.81746287 -1178.39662689 398.02234284 -1175.10900879 399.22711182 C-1173.67824775 399.75144263 -1172.24750284 400.27581745 -1170.81677246 400.80023193 C-1147.71998145 409.26595546 -1124.60823351 417.68977464 -1101.48703003 426.08859253 C-1086.77002827 431.43557624 -1072.05967614 436.79996599 -1057.36499023 442.20800781 C-1053.25327818 443.72065399 -1049.13818283 445.2234565 -1045.01977539 446.71777344 C-1036.80032228 449.70711648 -1028.60117104 452.70072846 -1020.52423096 456.05984497 C-1017.52655462 457.3047801 -1014.51419262 458.51155898 -1011.50018311 459.71630859 C-1009.5273138 460.52565495 -1007.58825443 461.39237701 -1005.64306641 462.265625 C-999.56490215 464.68331191 -995.40837918 465.68414287 -989.16069031 463.1953125 C-986.40079257 461.92845907 -983.7214394 460.54317778 -981.05288696 459.09463501 C-978.36350937 457.66061213 -975.61104468 456.39176991 -972.842453 455.11936951 C-970.72773953 454.14631867 -968.62363644 453.15319603 -966.52148438 452.15332031 C-963.48999305 450.71161333 -960.45763523 449.27178968 -957.42382812 447.83496094 C-954.20308731 446.30952127 -950.98275295 444.78322887 -947.76269531 443.25634766 C-940.34764605 439.74182314 -932.92454731 436.24440523 -925.5 432.75 C-924.79359375 432.41742187 -924.0871875 432.08484375 -923.359375 431.7421875 C-912.84205797 426.79172875 -902.30467533 421.8859613 -891.75585938 417.00292969 C-882.14831569 412.54872169 -872.57230321 408.02932515 -863 403.5 C-852.30888953 398.441289 -841.60844247 393.40593724 -830.875 388.4375 C-820.69134385 383.72311741 -810.52722018 378.96912611 -800.375 374.1875 C-799.66492798 373.85308899 -798.95485596 373.51867798 -798.2232666 373.1741333 C-793.14835201 370.78379997 -788.07410092 368.39205997 -783 366 C-777.20878492 363.26987422 -771.41728516 360.54035488 -765.625 357.8125 C-764.91462585 357.47793793 -764.20425171 357.14337585 -763.47235107 356.79867554 C-752.87022807 351.80685646 -742.24948741 346.85698021 -731.61572266 341.93286133 C-721.66164862 337.31877018 -711.73536171 332.6467753 -701.8114624 327.9682312 C-692.26382584 323.4677593 -682.7041336 318.99563392 -673.125 314.5625 C-662.39149232 309.59420584 -651.69110899 304.5587103 -641 299.5 C-629.19338271 293.91346482 -617.3694523 288.36865351 -605.515625 282.8828125 C-596.32596034 278.62599082 -587.160743 274.31862868 -578 270 C-565.31943764 264.02276005 -552.61740157 258.09441235 -539.8984375 252.19921875 C-532.71946369 248.87160379 -525.54574788 245.53279397 -518.375 242.1875 C-517.75945251 241.90035126 -517.14390503 241.61320251 -516.50970459 241.31735229 C-505.56260241 236.20900181 -494.63281311 231.06417759 -483.70489502 225.91494751 C-471.78866727 220.30109142 -459.84956398 214.7384602 -447.8984375 209.19921875 C-440.71946369 205.87160379 -433.54574788 202.53279397 -426.375 199.1875 C-425.75945251 198.90035126 -425.14390503 198.61320251 -424.50970459 198.31735229 C-413.56260241 193.20900181 -402.63281311 188.06417759 -391.70489502 182.91494751 C-379.78866727 177.30109142 -367.84956398 171.7384602 -355.8984375 166.19921875 C-348.71946369 162.87160379 -341.54574788 159.53279397 -334.375 156.1875 C-333.75945251 155.90035126 -333.14390503 155.61320251 -332.50970459 155.31735229 C-321.56260241 150.20900181 -310.63281311 145.06417759 -299.70489502 139.91494751 C-287.78866727 134.30109142 -275.84956398 128.7384602 -263.8984375 123.19921875 C-256.71946369 119.87160379 -249.54574788 116.53279397 -242.375 113.1875 C-241.75945251 112.90035126 -241.14390503 112.61320251 -240.50970459 112.31735229 C-229.56260241 107.20900181 -218.63281311 102.06417759 -207.70489502 96.91494751 C-195.78866727 91.30109142 -183.84956398 85.7384602 -171.8984375 80.19921875 C-164.71946369 76.87160379 -157.54574788 73.53279397 -150.375 70.1875 C-149.75945251 69.90035126 -149.14390503 69.61320251 -148.50970459 69.31735229 C-137.56260241 64.20900181 -126.63281311 59.06417759 -115.70489502 53.91494751 C-103.78866727 48.30109142 -91.84956398 42.7384602 -79.8984375 37.19921875 C-72.7194632 33.87160356 -65.54580334 30.53267582 -58.375 27.1875 C-57.46115036 26.76126343 -57.46115036 26.76126343 -56.52883911 26.32641602 C-48.96688194 22.79835883 -41.41191214 19.25570165 -33.86328125 15.69921875 C-32.71357849 15.15762367 -32.71357849 15.15762367 -31.54064941 14.60508728 C-27.81132448 12.84796738 -24.08265484 11.0894762 -20.35498047 9.32885742 C-16.57400094 7.54392842 -12.78736191 5.7713432 -9 4 C-8.04174316 3.54399414 -7.08348633 3.08798828 -6.09619141 2.61816406 C-4.09134296 1.68461782 -2.04971047 0.83042932 0 0 Z " fill="#000000" transform="translate(1998,1283)"/>
</svg>
